<svg width="1080" height="1080" viewBox="0 0 1080 1080" fill="none" xmlns="http://www.w3.org/2000/svg">
<g clip-path="url(#clip0_0_180)">
<path d="M4037.5 -799.281H-3372.5V3368.84H4037.5V-799.281Z" fill="white"/>
<path d="M4037.5 -799.281H-3372.5V3368.84H4037.5V-799.281Z" fill="white"/>
<path d="M4037.5 -799.281H-3372.5V3368.84H4037.5V-799.281Z" fill="#FEE715"/>
<path d="M283.593 -159.607V-162.807H-3.94164V-161.202H-5.53711V126.332H-2.34618V70.4208H51.9698V126.332H55.1608V70.4208H109.477V126.332H112.668V70.4208H166.984V126.332H170.183V70.4208H224.491V126.332H227.69V70.4208H283.593V67.2299H227.69V12.9139H283.593V9.72293H227.69V-44.5931H283.593V-47.784H227.69V-102.1H283.593V-105.291H227.69V-159.607H283.593ZM55.1608 -105.291V-159.607H109.477V-105.291H55.1608ZM109.477 -102.1V-47.784H55.1608V-102.1H109.477ZM51.9698 -105.291H-2.34618V-159.607H51.9698V-105.291ZM51.9698 -102.1V-47.784H-2.34618V-102.1H51.9698ZM51.9698 -44.5931V9.72293H-2.34618V-44.5931H51.9698ZM55.1608 -44.5931H109.477V9.72293H55.1608V-44.5931ZM112.668 -44.5931H166.984V9.72293H112.668V-44.5931ZM112.668 -47.784V-102.1H166.984V-47.784H112.668ZM112.668 -105.291V-159.607H166.984V-105.291H112.668ZM-2.34618 67.2299V12.9139H51.9698V67.2299H-2.34618ZM55.1608 67.2299V12.9139H109.477V67.2299H55.1608ZM112.668 67.2299V12.9139H166.984V67.2299H112.668ZM224.491 67.2299H170.183V12.9139H224.491V67.2299ZM224.491 9.72293H170.183V-44.5931H224.491V9.72293ZM224.491 -47.784H170.183V-102.1H224.491V-47.784ZM224.491 -105.291H170.183V-159.607H224.491V-105.291Z" fill="black" fill-opacity="0.1"/>
<path d="M283.593 129.524V126.333H-3.94164V127.928H-5.53711V415.463H-2.34618V359.56H51.9698V415.463H55.1608V359.56H109.477V415.463H112.668V359.56H166.984V415.463H170.183V359.56H224.491V415.463H227.69V359.56H283.593V356.361H227.69V302.054H283.593V298.854H227.69V244.547H283.593V241.347H227.69V187.031H283.593V183.84H227.69V129.524H283.593ZM55.1608 183.84V129.524H109.477V183.84H55.1608ZM109.477 187.031V241.347H55.1608V187.031H109.477ZM51.9698 183.84H-2.34618V129.524H51.9698V183.84ZM51.9698 187.031V241.347H-2.34618V187.031H51.9698ZM51.9698 244.547V298.854H-2.34618V244.547H51.9698ZM55.1608 244.547H109.477V298.854H55.1608V244.547ZM112.668 244.547H166.984V298.854H112.668V244.547ZM112.668 241.347V187.031H166.984V241.347H112.668ZM112.668 183.84V129.524H166.984V183.84H112.668ZM-2.34618 356.361V302.054H51.9698V356.361H-2.34618ZM55.1608 356.361V302.054H109.477V356.361H55.1608ZM112.668 356.361V302.054H166.984V356.361H112.668ZM224.491 356.361H170.183V302.054H224.491V356.361ZM224.491 298.854H170.183V244.547H224.491V298.854ZM224.491 241.347H170.183V187.031H224.491V241.347ZM224.491 183.84H170.183V129.524H224.491V183.84Z" fill="black" fill-opacity="0.1"/>
<path d="M283.593 418.661V415.461H-3.94164V417.066H-5.53711V704.6H-2.34618V648.689H51.9698V704.6H55.1608V648.689H109.477V704.6H112.668V648.689H166.984V704.6H170.183V648.689H224.491V704.6H227.69V648.689H283.593V645.498H227.69V591.182H283.593V587.991H227.69V533.675H283.593V530.484H227.69V476.168H283.593V472.977H227.69V418.661H283.593ZM55.1608 472.977V418.661H109.477V472.977H55.1608ZM109.477 476.168V530.484H55.1608V476.168H109.477ZM51.9698 472.977H-2.34618V418.661H51.9698V472.977ZM51.9698 476.168V530.484H-2.34618V476.168H51.9698ZM51.9698 533.675V587.991H-2.34618V533.675H51.9698ZM55.1608 533.675H109.477V587.991H55.1608V533.675ZM112.668 533.675H166.984V587.991H112.668V533.675ZM112.668 530.484V476.168H166.984V530.484H112.668ZM112.668 472.977V418.661H166.984V472.977H112.668ZM-2.34618 645.498V591.182H51.9698V645.498H-2.34618ZM55.1608 645.498V591.182H109.477V645.498H55.1608ZM112.668 645.498V591.182H166.984V645.498H112.668ZM224.491 645.498H170.183V591.182H224.491V645.498ZM224.491 587.991H170.183V533.675H224.491V587.991ZM224.491 530.484H170.183V476.168H224.491V530.484ZM224.491 472.977H170.183V418.661H224.491V472.977Z" fill="black" fill-opacity="0.1"/>
<path d="M283.593 707.792V704.601H-3.94164V706.196H-5.53711V993.731H-2.34618V937.828H51.9698V993.731H55.1608V937.828H109.477V993.731H112.668V937.828H166.984V993.731H170.183V937.828H224.491V993.731H227.69V937.828H283.593V934.628H227.69V880.321H283.593V877.121H227.69V822.814H283.593V819.614H227.69V765.298H283.593V762.108H227.69V707.792H283.593ZM55.1608 762.108V707.792H109.477V762.108H55.1608ZM109.477 765.298V819.614H55.1608V765.298H109.477ZM51.9698 762.108H-2.34618V707.792H51.9698V762.108ZM51.9698 765.298V819.614H-2.34618V765.298H51.9698ZM51.9698 822.814V877.121H-2.34618V822.814H51.9698ZM55.1608 822.814H109.477V877.121H55.1608V822.814ZM112.668 822.814H166.984V877.121H112.668V822.814ZM112.668 819.614V765.298H166.984V819.614H112.668ZM112.668 762.108V707.792H166.984V762.108H112.668ZM-2.34618 934.628V880.321H51.9698V934.628H-2.34618ZM55.1608 934.628V880.321H109.477V934.628H55.1608ZM112.668 934.628V880.321H166.984V934.628H112.668ZM224.491 934.628H170.183V880.321H224.491V934.628ZM224.491 877.121H170.183V822.814H224.491V877.121ZM224.491 819.614H170.183V765.298H224.491V819.614ZM224.491 762.108H170.183V707.792H224.491V762.108Z" fill="black" fill-opacity="0.1"/>
<path d="M283.593 996.931V993.731H-3.94164V995.335H-5.53711V1282.87H-2.34618V1226.96H51.9698V1282.87H55.1608V1226.96H109.477V1282.87H112.668V1226.96H166.984V1282.87H170.183V1226.96H224.491V1282.87H227.69V1226.96H283.593V1223.77H227.69V1169.45H283.593V1166.26H227.69V1111.94H283.593V1108.75H227.69V1054.44H283.593V1051.25H227.69V996.931H283.593ZM55.1608 1051.25V996.931H109.477V1051.25H55.1608ZM109.477 1054.44V1108.75H55.1608V1054.44H109.477ZM51.9698 1051.25H-2.34618V996.931H51.9698V1051.25ZM51.9698 1054.44V1108.75H-2.34618V1054.44H51.9698ZM51.9698 1111.94V1166.26H-2.34618V1111.94H51.9698ZM55.1608 1111.94H109.477V1166.26H55.1608V1111.94ZM112.668 1111.94H166.984V1166.26H112.668V1111.94ZM112.668 1108.75V1054.44H166.984V1108.75H112.668ZM112.668 1051.25V996.931H166.984V1051.25H112.668ZM-2.34618 1223.77V1169.45H51.9698V1223.77H-2.34618ZM55.1608 1223.77V1169.45H109.477V1223.77H55.1608ZM112.668 1223.77V1169.45H166.984V1223.77H112.668ZM224.491 1223.77H170.183V1169.45H224.491V1223.77ZM224.491 1166.26H170.183V1111.94H224.491V1166.26ZM224.491 1108.75H170.183V1054.44H224.491V1108.75ZM224.491 1051.25H170.183V996.931H224.491V1051.25Z" fill="black" fill-opacity="0.1"/>
<path d="M572.733 -159.607V-162.807H285.198V-161.202H283.594V126.332H286.793V70.4208H341.101V126.332H344.3V70.4208H398.616V126.332H401.807V70.4208H456.123V126.332H459.314V70.4208H513.63V126.332H516.821V70.4208H572.733V67.2299H516.821V12.9139H572.733V9.72293H516.821V-44.5931H572.733V-47.784H516.821V-102.1H572.733V-105.291H516.821V-159.607H572.733ZM344.3 -105.291V-159.607H398.616V-105.291H344.3ZM398.616 -102.1V-47.784H344.3V-102.1H398.616ZM341.101 -105.291H286.793V-159.607H341.101V-105.291ZM341.101 -102.1V-47.784H286.793V-102.1H341.101ZM341.101 -44.5931V9.72293H286.793V-44.5931H341.101ZM344.3 -44.5931H398.616V9.72293H344.3V-44.5931ZM401.807 -44.5931H456.123V9.72293H401.807V-44.5931ZM401.807 -47.784V-102.1H456.123V-47.784H401.807ZM401.807 -105.291V-159.607H456.123V-105.291H401.807ZM286.793 67.2299V12.9139H341.101V67.2299H286.793ZM344.3 67.2299V12.9139H398.616V67.2299H344.3ZM401.807 67.2299V12.9139H456.123V67.2299H401.807ZM513.63 67.2299H459.314V12.9139H513.63V67.2299ZM513.63 9.72293H459.314V-44.5931H513.63V9.72293ZM513.63 -47.784H459.314V-102.1H513.63V-47.784ZM513.63 -105.291H459.314V-159.607H513.63V-105.291Z" fill="black" fill-opacity="0.1"/>
<path d="M572.733 129.524V126.333H285.198V127.928H283.594V415.463H286.793V359.56H341.101V415.463H344.3V359.56H398.616V415.463H401.807V359.56H456.123V415.463H459.314V359.56H513.63V415.463H516.821V359.56H572.733V356.361H516.821V302.054H572.733V298.854H516.821V244.547H572.733V241.347H516.821V187.031H572.733V183.84H516.821V129.524H572.733ZM344.3 183.84V129.524H398.616V183.84H344.3ZM398.616 187.031V241.347H344.3V187.031H398.616ZM341.101 183.84H286.793V129.524H341.101V183.84ZM341.101 187.031V241.347H286.793V187.031H341.101ZM341.101 244.547V298.854H286.793V244.547H341.101ZM344.3 244.547H398.616V298.854H344.3V244.547ZM401.807 244.547H456.123V298.854H401.807V244.547ZM401.807 241.347V187.031H456.123V241.347H401.807ZM401.807 183.84V129.524H456.123V183.84H401.807ZM286.793 356.361V302.054H341.101V356.361H286.793ZM344.3 356.361V302.054H398.616V356.361H344.3ZM401.807 356.361V302.054H456.123V356.361H401.807ZM513.63 356.361H459.314V302.054H513.63V356.361ZM513.63 298.854H459.314V244.547H513.63V298.854ZM513.63 241.347H459.314V187.031H513.63V241.347ZM513.63 183.84H459.314V129.524H513.63V183.84Z" fill="black" fill-opacity="0.1"/>
<path d="M572.733 418.661V415.461H285.198V417.066H283.594V704.6H286.793V648.689H341.101V704.6H344.3V648.689H398.616V704.6H401.807V648.689H456.123V704.6H459.314V648.689H513.63V704.6H516.821V648.689H572.733V645.498H516.821V591.182H572.733V587.991H516.821V533.675H572.733V530.484H516.821V476.168H572.733V472.977H516.821V418.661H572.733ZM344.3 472.977V418.661H398.616V472.977H344.3ZM398.616 476.168V530.484H344.3V476.168H398.616ZM341.101 472.977H286.793V418.661H341.101V472.977ZM341.101 476.168V530.484H286.793V476.168H341.101ZM341.101 533.675V587.991H286.793V533.675H341.101ZM344.3 533.675H398.616V587.991H344.3V533.675ZM401.807 533.675H456.123V587.991H401.807V533.675ZM401.807 530.484V476.168H456.123V530.484H401.807ZM401.807 472.977V418.661H456.123V472.977H401.807ZM286.793 645.498V591.182H341.101V645.498H286.793ZM344.3 645.498V591.182H398.616V645.498H344.3ZM401.807 645.498V591.182H456.123V645.498H401.807ZM513.63 645.498H459.314V591.182H513.63V645.498ZM513.63 587.991H459.314V533.675H513.63V587.991ZM513.63 530.484H459.314V476.168H513.63V530.484ZM513.63 472.977H459.314V418.661H513.63V472.977Z" fill="black" fill-opacity="0.1"/>
<path d="M572.733 707.792V704.601H285.198V706.196H283.594V993.731H286.793V937.828H341.101V993.731H344.3V937.828H398.616V993.731H401.807V937.828H456.123V993.731H459.314V937.828H513.63V993.731H516.821V937.828H572.733V934.628H516.821V880.321H572.733V877.121H516.821V822.814H572.733V819.614H516.821V765.298H572.733V762.108H516.821V707.792H572.733ZM344.3 762.108V707.792H398.616V762.108H344.3ZM398.616 765.298V819.614H344.3V765.298H398.616ZM341.101 762.108H286.793V707.792H341.101V762.108ZM341.101 765.298V819.614H286.793V765.298H341.101ZM341.101 822.814V877.121H286.793V822.814H341.101ZM344.3 822.814H398.616V877.121H344.3V822.814ZM401.807 822.814H456.123V877.121H401.807V822.814ZM401.807 819.614V765.298H456.123V819.614H401.807ZM401.807 762.108V707.792H456.123V762.108H401.807ZM286.793 934.628V880.321H341.101V934.628H286.793ZM344.3 934.628V880.321H398.616V934.628H344.3ZM401.807 934.628V880.321H456.123V934.628H401.807ZM513.63 934.628H459.314V880.321H513.63V934.628ZM513.63 877.121H459.314V822.814H513.63V877.121ZM513.63 819.614H459.314V765.298H513.63V819.614ZM513.63 762.108H459.314V707.792H513.63V762.108Z" fill="black" fill-opacity="0.1"/>
<path d="M572.733 996.931V993.731H285.198V995.335H283.594V1282.87H286.793V1226.96H341.101V1282.87H344.3V1226.96H398.616V1282.87H401.807V1226.96H456.123V1282.87H459.314V1226.96H513.63V1282.87H516.821V1226.96H572.733V1223.77H516.821V1169.45H572.733V1166.26H516.821V1111.94H572.733V1108.75H516.821V1054.44H572.733V1051.25H516.821V996.931H572.733ZM344.3 1051.25V996.931H398.616V1051.25H344.3ZM398.616 1054.44V1108.75H344.3V1054.44H398.616ZM341.101 1051.25H286.793V996.931H341.101V1051.25ZM341.101 1054.44V1108.75H286.793V1054.44H341.101ZM341.101 1111.94V1166.26H286.793V1111.94H341.101ZM344.3 1111.94H398.616V1166.26H344.3V1111.94ZM401.807 1111.94H456.123V1166.26H401.807V1111.94ZM401.807 1108.75V1054.44H456.123V1108.75H401.807ZM401.807 1051.25V996.931H456.123V1051.25H401.807ZM286.793 1223.77V1169.45H341.101V1223.77H286.793ZM344.3 1223.77V1169.45H398.616V1223.77H344.3ZM401.807 1223.77V1169.45H456.123V1223.77H401.807ZM513.63 1223.77H459.314V1169.45H513.63V1223.77ZM513.63 1166.26H459.314V1111.94H513.63V1166.26ZM513.63 1108.75H459.314V1054.44H513.63V1108.75ZM513.63 1051.25H459.314V996.931H513.63V1051.25Z" fill="black" fill-opacity="0.1"/>
<path d="M861.863 -159.607V-162.807H574.328V-161.202H572.732V126.332H575.923V70.4208H630.239V126.332H633.43V70.4208H687.746V126.332H690.937V70.4208H745.253V126.332H748.453V70.4208H802.76V126.332H805.96V70.4208H861.863V67.2299H805.96V12.9139H861.863V9.72293H805.96V-44.5931H861.863V-47.784H805.96V-102.1H861.863V-105.291H805.96V-159.607H861.863ZM633.43 -105.291V-159.607H687.746V-105.291H633.43ZM687.746 -102.1V-47.784H633.43V-102.1H687.746ZM630.239 -105.291H575.923V-159.607H630.239V-105.291ZM630.239 -102.1V-47.784H575.923V-102.1H630.239ZM630.239 -44.5931V9.72293H575.923V-44.5931H630.239ZM633.43 -44.5931H687.746V9.72293H633.43V-44.5931ZM690.937 -44.5931H745.253V9.72293H690.937V-44.5931ZM690.937 -47.784V-102.1H745.253V-47.784H690.937ZM690.937 -105.291V-159.607H745.253V-105.291H690.937ZM575.923 67.2299V12.9139H630.239V67.2299H575.923ZM633.43 67.2299V12.9139H687.746V67.2299H633.43ZM690.937 67.2299V12.9139H745.253V67.2299H690.937ZM802.76 67.2299H748.453V12.9139H802.76V67.2299ZM802.76 9.72293H748.453V-44.5931H802.76V9.72293ZM802.76 -47.784H748.453V-102.1H802.76V-47.784ZM802.76 -105.291H748.453V-159.607H802.76V-105.291Z" fill="black" fill-opacity="0.1"/>
<path d="M861.863 129.524V126.333H574.328V127.928H572.732V415.463H575.923V359.56H630.239V415.463H633.43V359.56H687.746V415.463H690.937V359.56H745.253V415.463H748.453V359.56H802.76V415.463H805.96V359.56H861.863V356.361H805.96V302.054H861.863V298.854H805.96V244.547H861.863V241.347H805.96V187.031H861.863V183.84H805.96V129.524H861.863ZM633.43 183.84V129.524H687.746V183.84H633.43ZM687.746 187.031V241.347H633.43V187.031H687.746ZM630.239 183.84H575.923V129.524H630.239V183.84ZM630.239 187.031V241.347H575.923V187.031H630.239ZM630.239 244.547V298.854H575.923V244.547H630.239ZM633.43 244.547H687.746V298.854H633.43V244.547ZM690.937 244.547H745.253V298.854H690.937V244.547ZM690.937 241.347V187.031H745.253V241.347H690.937ZM690.937 183.84V129.524H745.253V183.84H690.937ZM575.923 356.361V302.054H630.239V356.361H575.923ZM633.43 356.361V302.054H687.746V356.361H633.43ZM690.937 356.361V302.054H745.253V356.361H690.937ZM802.76 356.361H748.453V302.054H802.76V356.361ZM802.76 298.854H748.453V244.547H802.76V298.854ZM802.76 241.347H748.453V187.031H802.76V241.347ZM802.76 183.84H748.453V129.524H802.76V183.84Z" fill="black" fill-opacity="0.1"/>
<path d="M861.863 418.661V415.461H574.328V417.066H572.732V704.6H575.923V648.689H630.239V704.6H633.43V648.689H687.746V704.6H690.937V648.689H745.253V704.6H748.453V648.689H802.76V704.6H805.96V648.689H861.863V645.498H805.96V591.182H861.863V587.991H805.96V533.675H861.863V530.484H805.96V476.168H861.863V472.977H805.96V418.661H861.863ZM633.43 472.977V418.661H687.746V472.977H633.43ZM687.746 476.168V530.484H633.43V476.168H687.746ZM630.239 472.977H575.923V418.661H630.239V472.977ZM630.239 476.168V530.484H575.923V476.168H630.239ZM630.239 533.675V587.991H575.923V533.675H630.239ZM633.43 533.675H687.746V587.991H633.43V533.675ZM690.937 533.675H745.253V587.991H690.937V533.675ZM690.937 530.484V476.168H745.253V530.484H690.937ZM690.937 472.977V418.661H745.253V472.977H690.937ZM575.923 645.498V591.182H630.239V645.498H575.923ZM633.43 645.498V591.182H687.746V645.498H633.43ZM690.937 645.498V591.182H745.253V645.498H690.937ZM802.76 645.498H748.453V591.182H802.76V645.498ZM802.76 587.991H748.453V533.675H802.76V587.991ZM802.76 530.484H748.453V476.168H802.76V530.484ZM802.76 472.977H748.453V418.661H802.76V472.977Z" fill="black" fill-opacity="0.1"/>
<path d="M861.863 707.792V704.601H574.328V706.196H572.732V993.731H575.923V937.828H630.239V993.731H633.43V937.828H687.746V993.731H690.937V937.828H745.253V993.731H748.453V937.828H802.76V993.731H805.96V937.828H861.863V934.628H805.96V880.321H861.863V877.121H805.96V822.814H861.863V819.614H805.96V765.298H861.863V762.108H805.96V707.792H861.863ZM633.43 762.108V707.792H687.746V762.108H633.43ZM687.746 765.298V819.614H633.43V765.298H687.746ZM630.239 762.108H575.923V707.792H630.239V762.108ZM630.239 765.298V819.614H575.923V765.298H630.239ZM630.239 822.814V877.121H575.923V822.814H630.239ZM633.43 822.814H687.746V877.121H633.43V822.814ZM690.937 822.814H745.253V877.121H690.937V822.814ZM690.937 819.614V765.298H745.253V819.614H690.937ZM690.937 762.108V707.792H745.253V762.108H690.937ZM575.923 934.628V880.321H630.239V934.628H575.923ZM633.43 934.628V880.321H687.746V934.628H633.43ZM690.937 934.628V880.321H745.253V934.628H690.937ZM802.76 934.628H748.453V880.321H802.76V934.628ZM802.76 877.121H748.453V822.814H802.76V877.121ZM802.76 819.614H748.453V765.298H802.76V819.614ZM802.76 762.108H748.453V707.792H802.76V762.108Z" fill="black" fill-opacity="0.1"/>
<path d="M861.863 996.931V993.731H574.328V995.335H572.732V1282.87H575.923V1226.96H630.239V1282.87H633.43V1226.96H687.746V1282.87H690.937V1226.96H745.253V1282.87H748.453V1226.96H802.76V1282.87H805.96V1226.96H861.863V1223.77H805.96V1169.45H861.863V1166.26H805.96V1111.94H861.863V1108.75H805.96V1054.44H861.863V1051.25H805.96V996.931H861.863ZM633.43 1051.25V996.931H687.746V1051.25H633.43ZM687.746 1054.44V1108.75H633.43V1054.44H687.746ZM630.239 1051.25H575.923V996.931H630.239V1051.25ZM630.239 1054.44V1108.75H575.923V1054.44H630.239ZM630.239 1111.94V1166.26H575.923V1111.94H630.239ZM633.43 1111.94H687.746V1166.26H633.43V1111.94ZM690.937 1111.94H745.253V1166.26H690.937V1111.94ZM690.937 1108.75V1054.44H745.253V1108.75H690.937ZM690.937 1051.25V996.931H745.253V1051.25H690.937ZM575.923 1223.77V1169.45H630.239V1223.77H575.923ZM633.43 1223.77V1169.45H687.746V1223.77H633.43ZM690.937 1223.77V1169.45H745.253V1223.77H690.937ZM802.76 1223.77H748.453V1169.45H802.76V1223.77ZM802.76 1166.26H748.453V1111.94H802.76V1166.26ZM802.76 1108.75H748.453V1054.44H802.76V1108.75ZM802.76 1051.25H748.453V996.931H802.76V1051.25Z" fill="black" fill-opacity="0.1"/>
<path d="M1151 -159.607V-162.807H863.466V-161.202H861.861V126.332H865.061V70.4208H919.368V126.332H922.568V70.4208H976.875V126.332H980.075V70.4208H1034.39V126.332H1037.58V70.4208H1091.9V126.332H1095.09V70.4208H1151V67.2299H1095.09V12.9139H1151V9.72293H1095.09V-44.5931H1151V-47.784H1095.09V-102.1H1151V-105.291H1095.09V-159.607H1151ZM922.568 -105.291V-159.607H976.875V-105.291H922.568ZM976.875 -102.1V-47.784H922.568V-102.1H976.875ZM919.368 -105.291H865.061V-159.607H919.368V-105.291ZM919.368 -102.1V-47.784H865.061V-102.1H919.368ZM919.368 -44.5931V9.72293H865.061V-44.5931H919.368ZM922.568 -44.5931H976.875V9.72293H922.568V-44.5931ZM980.075 -44.5931H1034.39V9.72293H980.075V-44.5931ZM980.075 -47.784V-102.1H1034.39V-47.784H980.075ZM980.075 -105.291V-159.607H1034.39V-105.291H980.075ZM865.061 67.2299V12.9139H919.368V67.2299H865.061ZM922.568 67.2299V12.9139H976.875V67.2299H922.568ZM980.075 67.2299V12.9139H1034.39V67.2299H980.075ZM1091.9 67.2299H1037.58V12.9139H1091.9V67.2299ZM1091.9 9.72293H1037.58V-44.5931H1091.9V9.72293ZM1091.9 -47.784H1037.58V-102.1H1091.9V-47.784ZM1091.9 -105.291H1037.58V-159.607H1091.9V-105.291Z" fill="black" fill-opacity="0.1"/>
<path d="M1151 129.524V126.333H863.466V127.928H861.861V415.463H865.061V359.56H919.368V415.463H922.568V359.56H976.875V415.463H980.075V359.56H1034.39V415.463H1037.58V359.56H1091.9V415.463H1095.09V359.56H1151V356.361H1095.09V302.054H1151V298.854H1095.09V244.547H1151V241.347H1095.09V187.031H1151V183.84H1095.09V129.524H1151ZM922.568 183.84V129.524H976.875V183.84H922.568ZM976.875 187.031V241.347H922.568V187.031H976.875ZM919.368 183.84H865.061V129.524H919.368V183.84ZM919.368 187.031V241.347H865.061V187.031H919.368ZM919.368 244.547V298.854H865.061V244.547H919.368ZM922.568 244.547H976.875V298.854H922.568V244.547ZM980.075 244.547H1034.39V298.854H980.075V244.547ZM980.075 241.347V187.031H1034.39V241.347H980.075ZM980.075 183.84V129.524H1034.39V183.84H980.075ZM865.061 356.361V302.054H919.368V356.361H865.061ZM922.568 356.361V302.054H976.875V356.361H922.568ZM980.075 356.361V302.054H1034.39V356.361H980.075ZM1091.9 356.361H1037.58V302.054H1091.9V356.361ZM1091.9 298.854H1037.58V244.547H1091.9V298.854ZM1091.9 241.347H1037.58V187.031H1091.9V241.347ZM1091.9 183.84H1037.58V129.524H1091.9V183.84Z" fill="black" fill-opacity="0.1"/>
<path d="M1151 418.661V415.461H863.467V417.066H861.862V704.6H865.062V648.689H919.369V704.6H922.569V648.689H976.876V704.6H980.076V648.689H1034.39V704.6H1037.58V648.689H1091.9V704.6H1095.09V648.689H1151V645.498H1095.09V591.182H1151V587.991H1095.09V533.675H1151V530.484H1095.09V476.168H1151V472.977H1095.09V418.661H1151ZM922.569 472.977V418.661H976.876V472.977H922.569ZM976.876 476.168V530.484H922.569V476.168H976.876ZM919.369 472.977H865.062V418.661H919.369V472.977ZM919.369 476.168V530.484H865.062V476.168H919.369ZM919.369 533.675V587.991H865.062V533.675H919.369ZM922.569 533.675H976.876V587.991H922.569V533.675ZM980.076 533.675H1034.39V587.991H980.076V533.675ZM980.076 530.484V476.168H1034.39V530.484H980.076ZM980.076 472.977V418.661H1034.39V472.977H980.076ZM865.062 645.498V591.182H919.369V645.498H865.062ZM922.569 645.498V591.182H976.876V645.498H922.569ZM980.076 645.498V591.182H1034.39V645.498H980.076ZM1091.9 645.498H1037.58V591.182H1091.9V645.498ZM1091.9 587.991H1037.58V533.675H1091.9V587.991ZM1091.9 530.484H1037.58V476.168H1091.9V530.484ZM1091.9 472.977H1037.58V418.661H1091.9V472.977Z" fill="black" fill-opacity="0.1"/>
<path d="M1151 707.792V704.601H863.467V706.196H861.862V993.731H865.062V937.828H919.369V993.731H922.569V937.828H976.876V993.731H980.076V937.828H1034.39V993.731H1037.58V937.828H1091.9V993.731H1095.09V937.828H1151V934.628H1095.09V880.321H1151V877.121H1095.09V822.814H1151V819.614H1095.09V765.298H1151V762.108H1095.09V707.792H1151ZM922.569 762.108V707.792H976.876V762.108H922.569ZM976.876 765.298V819.614H922.569V765.298H976.876ZM919.369 762.108H865.062V707.792H919.369V762.108ZM919.369 765.298V819.614H865.062V765.298H919.369ZM919.369 822.814V877.121H865.062V822.814H919.369ZM922.569 822.814H976.876V877.121H922.569V822.814ZM980.076 822.814H1034.39V877.121H980.076V822.814ZM980.076 819.614V765.298H1034.39V819.614H980.076ZM980.076 762.108V707.792H1034.39V762.108H980.076ZM865.062 934.628V880.321H919.369V934.628H865.062ZM922.569 934.628V880.321H976.876V934.628H922.569ZM980.076 934.628V880.321H1034.39V934.628H980.076ZM1091.9 934.628H1037.58V880.321H1091.9V934.628ZM1091.9 877.121H1037.58V822.814H1091.9V877.121ZM1091.9 819.614H1037.58V765.298H1091.9V819.614ZM1091.9 762.108H1037.58V707.792H1091.9V762.108Z" fill="black" fill-opacity="0.1"/>
<path d="M1151 996.931V993.731H863.467V995.335H861.862V1282.87H865.062V1226.96H919.369V1282.87H922.569V1226.96H976.876V1282.87H980.076V1226.96H1034.39V1282.87H1037.58V1226.96H1091.9V1282.87H1095.09V1226.96H1151V1223.77H1095.09V1169.45H1151V1166.26H1095.09V1111.94H1151V1108.75H1095.09V1054.44H1151V1051.25H1095.09V996.931H1151ZM922.569 1051.25V996.931H976.876V1051.25H922.569ZM976.876 1054.44V1108.75H922.569V1054.44H976.876ZM919.369 1051.25H865.062V996.931H919.369V1051.25ZM919.369 1054.44V1108.75H865.062V1054.44H919.369ZM919.369 1111.94V1166.26H865.062V1111.94H919.369ZM922.569 1111.94H976.876V1166.26H922.569V1111.94ZM980.076 1111.94H1034.39V1166.26H980.076V1111.94ZM980.076 1108.75V1054.44H1034.39V1108.75H980.076ZM980.076 1051.25V996.931H1034.39V1051.25H980.076ZM865.062 1223.77V1169.45H919.369V1223.77H865.062ZM922.569 1223.77V1169.45H976.876V1223.77H922.569ZM980.076 1223.77V1169.45H1034.39V1223.77H980.076ZM1091.9 1223.77H1037.58V1169.45H1091.9V1223.77ZM1091.9 1166.26H1037.58V1111.94H1091.9V1166.26ZM1091.9 1108.75H1037.58V1054.44H1091.9V1108.75ZM1091.9 1051.25H1037.58V996.931H1091.9V1051.25Z" fill="black" fill-opacity="0.1"/>
</g>
<defs>
<clipPath id="clip0_0_180">
<rect width="6175" height="3473.44" fill="white" transform="translate(-2755 -451.938)"/>
</clipPath>
</defs>
</svg>
