<svg xmlns="http://www.w3.org/2000/svg" version="1.1" xmlns:xlink="http://www.w3.org/1999/xlink" xmlns:svgjs="http://svgjs.com/svgjs" width="1440" height="560" preserveAspectRatio="none" viewBox="0 0 1440 560"><g mask="url(&quot;#SvgjsMask1005&quot;)" fill="none"><path d="M655.11 132.61a23.1 23.1 0 1 0 38.54-25.47z" fill="rgba(254, 231, 21, 1)"></path><path d="M489.44 25.42L511.59 25.42L511.59 53.43L489.44 53.43z" fill="rgba(254, 231, 21, 1)"></path><path d="M1186.31 307.84 a36.17 36.17 0 1 0 72.34 0 a36.17 36.17 0 1 0 -72.34 0z" stroke="rgba(254, 231, 21, 1)"></path><path d="M1179.62 263.75L1216.66 263.75L1216.66 307.84L1179.62 307.84z" fill="rgba(254, 231, 21, 1)"></path><path d="M1169.04 263.37L1207.29 263.37L1207.29 316.08L1169.04 316.08z" stroke="rgba(254, 231, 21, 1)"></path><path d="M185.88 325.83a22.81 22.81 0 1 0-27.37-36.5z" fill="rgba(254, 231, 21, 1)"></path><path d="M629.39 12.94L674.62 12.94L674.62 58.17L629.39 58.17z" stroke="rgba(254, 231, 21, 1)"></path><path d="M38.91 125.45 a11.79 11.79 0 1 0 23.58 0 a11.79 11.79 0 1 0 -23.58 0z" stroke="rgba(254, 231, 21, 1)"></path><path d="M562.82 294.33 a46.8 46.8 0 1 0 93.6 0 a46.8 46.8 0 1 0 -93.6 0z" fill="rgba(254, 231, 21, 1)"></path><path d="M323.38 131.19L369.15 131.19L369.15 131.27L323.38 131.27z" fill="rgba(254, 231, 21, 1)"></path><path d="M189.02 178.48L244.41 178.48L244.41 233.87L189.02 233.87z" fill="rgba(254, 231, 21, 1)"></path><path d="M1372.08 58.11a0.39 0.39 0 1 0 0.78 0z" fill="rgba(254, 231, 21, 1)"></path><path d="M1021.12 318.74L1025.43 318.74L1025.43 321.41L1021.12 321.41z" fill="rgba(254, 231, 21, 1)"></path><path d="M322.44 551.54 a15.38 15.38 0 1 0 30.76 0 a15.38 15.38 0 1 0 -30.76 0z" fill="rgba(254, 231, 21, 1)"></path><path d="M103.65 104.99L139.09 104.99L139.09 140.43L103.65 140.43z" fill="rgba(254, 231, 21, 1)"></path><path d="M877.78 67.67L917.39 67.67L917.39 78.74L877.78 78.74z" fill="rgba(254, 231, 21, 1)"></path><path d="M574.38 415L602.07 415L602.07 442.69L574.38 442.69z" fill="rgba(254, 231, 21, 1)"></path><path d="M749.51 224.63L770.44 224.63L770.44 257.31L749.51 257.31z" fill="rgba(254, 231, 21, 1)"></path><path d="M1293.35 466.45L1336.67 466.45L1336.67 509.77L1293.35 509.77z" fill="rgba(254, 231, 21, 1)"></path><path d="M710.95 181.01 a11.96 11.96 0 1 0 23.92 0 a11.96 11.96 0 1 0 -23.92 0z" stroke="rgba(254, 231, 21, 1)"></path><path d="M1379.58 200.66a10.94 10.94 0 1 0 11.3 18.73z" stroke="rgba(254, 231, 21, 1)"></path><path d="M540.9 128.32a37.59 37.59 0 1 0-72.04 21.49z" fill="rgba(254, 231, 21, 1)"></path><path d="M1173.15 548.32 a4.03 4.03 0 1 0 8.06 0 a4.03 4.03 0 1 0 -8.06 0z" stroke="rgba(254, 231, 21, 1)"></path><path d="M934.18 128.7a41.99 41.99 0 1 0-1.67-83.96z" fill="rgba(254, 231, 21, 1)"></path><path d="M330.68 236.15 a33.73 33.73 0 1 0 67.46 0 a33.73 33.73 0 1 0 -67.46 0z" fill="rgba(254, 231, 21, 1)"></path><path d="M295.89 29.44L325.81 29.44L325.81 59.36L295.89 59.36z" stroke="rgba(254, 231, 21, 1)"></path><path d="M1037.09 394.49L1070.32 394.49L1070.32 417.49L1037.09 417.49z" stroke="rgba(254, 231, 21, 1)"></path><path d="M698.57 278.46L729.91 278.46L729.91 333.18L698.57 333.18z" fill="rgba(254, 231, 21, 1)"></path><path d="M185.57 331.42L233.06 331.42L233.06 361.26L185.57 361.26z" fill="rgba(254, 231, 21, 1)"></path><path d="M510.93 125.45L535.1 125.45L535.1 130.89L510.93 130.89z" fill="rgba(254, 231, 21, 1)"></path><path d="M1242.36 433.19 a48.36 48.36 0 1 0 96.72 0 a48.36 48.36 0 1 0 -96.72 0z" stroke="rgba(254, 231, 21, 1)"></path><path d="M878.65 465.43 a19.58 19.58 0 1 0 39.16 0 a19.58 19.58 0 1 0 -39.16 0z" fill="rgba(254, 231, 21, 1)"></path><path d="M995.7 539.23L1024.6 539.23L1024.6 567.57L995.7 567.57z" stroke="rgba(254, 231, 21, 1)"></path></g><defs><mask id="SvgjsMask1005"><rect width="1440" height="560" fill="#ffffff"></rect></mask></defs></svg>