<svg width="2829" height="1100" viewBox="0 0 2829 1100" fill="none" xmlns="http://www.w3.org/2000/svg">
<g opacity="0.34" clip-path="url(#clip0_217_2262)">
<path d="M1286.82 260.484C1290.07 265.543 1294.29 269.906 1299.23 273.32C1304.18 276.735 1309.76 279.133 1315.64 280.375C1321.52 281.617 1327.58 281.678 1333.49 280.556C1339.39 279.433 1345.02 277.148 1350.03 273.835C1355.04 270.521 1359.35 266.244 1362.7 261.252C1366.05 256.261 1368.37 250.654 1369.53 244.757C1370.69 238.861 1370.67 232.792 1369.47 226.903C1368.27 221.014 1365.91 215.423 1362.53 210.454L1286.82 260.484Z" fill="#FEE715"/>
<path d="M961.4 49.9336H1004.91V104.953H961.4V49.9336Z" fill="#FEE715"/>
<path d="M2330.25 604.685C2330.25 614.015 2332.09 623.254 2335.66 631.874C2339.23 640.494 2344.46 648.326 2351.06 654.924C2357.66 661.521 2365.49 666.754 2374.11 670.325C2382.73 673.895 2391.97 675.733 2401.3 675.733C2410.63 675.733 2419.87 673.895 2428.49 670.325C2437.11 666.754 2444.94 661.521 2451.54 654.924C2458.14 648.326 2463.37 640.494 2466.94 631.874C2470.51 623.254 2472.35 614.015 2472.35 604.685C2472.35 595.355 2470.51 586.116 2466.94 577.496C2463.37 568.876 2458.14 561.044 2451.54 554.446C2444.94 547.849 2437.11 542.615 2428.49 539.045C2419.87 535.474 2410.63 533.637 2401.3 533.637C2391.97 533.637 2382.73 535.474 2374.11 539.045C2365.49 542.615 2357.66 547.849 2351.06 554.446C2344.46 561.044 2339.23 568.876 2335.66 577.496C2332.09 586.116 2330.25 595.355 2330.25 604.685V604.685Z" stroke="#FEE715" stroke-width="1.96429"/>
<path d="M2317.11 518.08H2389.87V604.685H2317.11V518.08Z" fill="#FEE715"/>
<path d="M2296.33 517.333H2371.46V620.87H2296.33V517.333Z" stroke="#FEE715" stroke-width="1.96429"/>
<path d="M365.122 640.024C369.83 636.494 373.796 632.071 376.794 627.008C379.793 621.945 381.764 616.341 382.597 610.516C383.43 604.691 383.107 598.759 381.647 593.059C380.187 587.359 377.619 582.002 374.089 577.294C370.559 572.587 366.136 568.62 361.073 565.622C356.01 562.624 350.406 560.652 344.581 559.819C338.756 558.986 332.824 559.309 327.124 560.769C321.424 562.229 316.067 564.797 311.359 568.327L365.122 640.024Z" fill="#FEE715"/>
<path d="M1236.3 25.418H1325.15V114.263H1236.3V25.418Z" stroke="#FEE715" stroke-width="1.96429"/>
<path d="M76.4307 246.42C76.4307 249.461 77.0297 252.472 78.1935 255.282C79.3574 258.092 81.0633 260.645 83.2138 262.796C85.3643 264.946 87.9173 266.652 90.7271 267.816C93.5368 268.98 96.5483 269.579 99.5896 269.579C102.631 269.579 105.642 268.98 108.452 267.816C111.262 266.652 113.815 264.946 115.965 262.796C118.116 260.645 119.822 258.092 120.986 255.282C122.149 252.472 122.749 249.461 122.749 246.42C122.749 243.378 122.149 240.367 120.986 237.557C119.822 234.747 118.116 232.194 115.965 230.044C113.815 227.893 111.262 226.187 108.452 225.024C105.642 223.86 102.631 223.261 99.5896 223.261C96.5483 223.261 93.5368 223.86 90.7271 225.024C87.9173 226.187 85.3643 227.893 83.2138 230.044C81.0633 232.194 79.3574 234.747 78.1935 237.557C77.0297 240.367 76.4307 243.378 76.4307 246.42Z" stroke="#FEE715" stroke-width="1.96429"/>
<path d="M1105.54 578.148C1105.54 602.529 1115.23 625.912 1132.47 643.152C1149.71 660.392 1173.09 670.077 1197.47 670.077C1221.85 670.077 1245.23 660.392 1262.47 643.152C1279.71 625.912 1289.4 602.529 1289.4 578.148C1289.4 553.767 1279.71 530.385 1262.47 513.145C1245.23 495.905 1221.85 486.22 1197.47 486.22C1173.09 486.22 1149.71 495.905 1132.47 513.145C1115.23 530.385 1105.54 553.767 1105.54 578.148V578.148Z" fill="#FEE715"/>
<path d="M635.211 257.694H725.117V257.851H635.211V257.694Z" fill="#FEE715"/>
<path d="M371.29 350.586H480.091V459.388H371.29V350.586Z" fill="#FEE715"/>
<path d="M2695.16 114.145C2695.16 114.348 2695.24 114.543 2695.38 114.686C2695.53 114.83 2695.72 114.911 2695.92 114.911C2696.13 114.911 2696.32 114.83 2696.46 114.686C2696.61 114.543 2696.69 114.348 2696.69 114.145H2695.16Z" fill="#FEE715"/>
<path d="M2005.77 626.096H2014.24V631.34H2005.77V626.096Z" fill="#FEE715"/>
<path d="M633.364 1083.38C633.364 1091.39 636.547 1099.08 642.213 1104.74C647.878 1110.41 655.563 1113.59 663.575 1113.59C671.587 1113.59 679.272 1110.41 684.937 1104.74C690.603 1099.08 693.786 1091.39 693.786 1083.38C693.786 1075.37 690.603 1067.69 684.937 1062.02C679.272 1056.35 671.587 1053.17 663.575 1053.17C655.563 1053.17 647.878 1056.35 642.213 1062.02C636.547 1067.69 633.364 1075.37 633.364 1083.38V1083.38Z" fill="#FEE715"/>
<path d="M203.599 206.23H273.213V275.845H203.599V206.23Z" fill="#FEE715"/>
<path d="M1724.21 132.924H1802.02V154.668H1724.21V132.924Z" fill="#FEE715"/>
<path d="M1128.25 815.178H1182.64V869.569H1128.25V815.178Z" fill="#FEE715"/>
<path d="M1472.25 441.238H1513.36V505.431H1472.25V441.238Z" fill="#FEE715"/>
<path d="M2540.51 916.24H2625.6V1001.33H2540.51V916.24Z" fill="#FEE715"/>
<path d="M1396.51 355.556C1396.51 361.787 1398.98 367.763 1403.39 372.168C1407.8 376.574 1413.77 379.049 1420 379.049C1426.23 379.049 1432.21 376.574 1436.61 372.168C1441.02 367.763 1443.49 361.787 1443.49 355.556C1443.49 349.326 1441.02 343.35 1436.61 338.944C1432.21 334.539 1426.23 332.063 1420 332.063C1413.77 332.063 1407.8 334.539 1403.39 338.944C1398.98 343.35 1396.51 349.326 1396.51 355.556V355.556Z" stroke="#FEE715" stroke-width="1.96429"/>
<path d="M2709.89 394.153C2707.41 395.577 2705.23 397.483 2703.5 399.758C2701.76 402.033 2700.5 404.632 2699.78 407.403C2699.06 410.173 2698.91 413.059 2699.32 415.891C2699.73 418.722 2700.7 421.443 2702.18 423.894C2703.66 426.344 2705.61 428.475 2707.93 430.16C2710.24 431.845 2712.87 433.052 2715.65 433.709C2718.44 434.365 2721.33 434.459 2724.15 433.985C2726.97 433.51 2729.67 432.476 2732.09 430.944L2709.89 394.153Z" stroke="#FEE715" stroke-width="1.96429"/>
<path d="M1062.48 252.056C1059.78 242.687 1055.25 233.946 1049.14 226.338C1043.04 218.73 1035.5 212.406 1026.94 207.731C1018.38 203.056 1008.98 200.123 999.281 199.1C989.583 198.078 979.779 198.987 970.434 201.774C961.088 204.562 952.388 209.173 944.835 215.342C937.282 221.51 931.026 229.114 926.427 237.714C921.829 246.314 918.98 255.739 918.044 265.446C917.108 275.153 918.104 284.949 920.976 294.269L1062.48 252.056Z" fill="#FEE715"/>
<path d="M2304.4 1077.06C2304.4 1079.16 2305.24 1081.17 2306.72 1082.65C2308.21 1084.14 2310.22 1084.97 2312.32 1084.97C2314.42 1084.97 2316.43 1084.14 2317.92 1082.65C2319.4 1081.17 2320.23 1079.16 2320.23 1077.06C2320.23 1074.96 2319.4 1072.94 2317.92 1071.46C2316.43 1069.97 2314.42 1069.14 2312.32 1069.14C2310.22 1069.14 2308.21 1069.97 2306.72 1071.46C2305.24 1072.94 2304.4 1074.96 2304.4 1077.06Z" stroke="#FEE715" stroke-width="1.96429"/>
<path d="M1835 252.803C1845.89 252.685 1856.65 250.409 1866.66 246.108C1876.67 241.808 1885.73 235.567 1893.31 227.746C1900.9 219.925 1906.85 210.679 1910.85 200.543C1914.84 190.406 1916.78 179.579 1916.56 168.688C1916.35 157.796 1913.97 147.055 1909.58 137.085C1905.19 127.115 1898.87 118.114 1890.98 110.601C1883.09 103.088 1873.79 97.2121 1863.62 93.3127C1853.45 89.4132 1842.61 87.5675 1831.72 87.882L1835 252.803Z" fill="#FEE715"/>
<path d="M649.55 463.867C649.55 472.567 651.264 481.183 654.594 489.222C657.923 497.26 662.804 504.564 668.956 510.716C675.108 516.869 682.412 521.749 690.451 525.079C698.489 528.408 707.105 530.122 715.806 530.122C724.506 530.122 733.122 528.408 741.16 525.079C749.199 521.749 756.503 516.869 762.655 510.716C768.808 504.564 773.688 497.26 777.018 489.222C780.347 481.183 782.061 472.567 782.061 463.867C782.061 455.166 780.347 446.55 777.018 438.512C773.688 430.473 768.808 423.169 762.655 417.017C756.503 410.865 749.199 405.984 741.16 402.655C733.122 399.325 724.506 397.611 715.806 397.611C707.105 397.611 698.489 399.325 690.451 402.655C682.412 405.984 675.108 410.865 668.956 417.017C662.804 423.169 657.923 430.473 654.594 438.512C651.264 446.55 649.55 455.166 649.55 463.867V463.867Z" fill="#FEE715"/>
<path d="M581.213 57.8291H639.984V116.601H581.213V57.8291Z" stroke="#FEE715" stroke-width="1.96429"/>
<path d="M2037.14 774.891H2102.41V820.069H2037.14V774.891Z" stroke="#FEE715" stroke-width="1.96429"/>
<path d="M1372.19 546.975H1433.75V654.46H1372.19V546.975Z" fill="#FEE715"/>
<path d="M364.513 651.005H457.797V709.619H364.513V651.005Z" fill="#FEE715"/>
<path d="M1003.61 246.419H1051.09V257.105H1003.61V246.419Z" fill="#FEE715"/>
<path d="M2440.35 850.908C2440.35 876.102 2450.36 900.263 2468.17 918.078C2485.99 935.893 2510.15 945.901 2535.34 945.901C2560.54 945.901 2584.7 935.893 2602.51 918.078C2620.33 900.263 2630.34 876.102 2630.34 850.908C2630.34 825.714 2620.33 801.552 2602.51 783.738C2584.7 765.923 2560.54 755.915 2535.34 755.915C2510.15 755.915 2485.99 765.923 2468.17 783.738C2450.36 801.552 2440.35 825.714 2440.35 850.908V850.908Z" stroke="#FEE715" stroke-width="1.96429"/>
<path d="M1725.92 914.238C1725.92 919.289 1726.91 924.29 1728.85 928.956C1730.78 933.623 1733.61 937.862 1737.18 941.434C1740.76 945.005 1745 947.838 1749.66 949.771C1754.33 951.704 1759.33 952.699 1764.38 952.699C1769.43 952.699 1774.43 951.704 1779.1 949.771C1783.77 947.838 1788 945.005 1791.58 941.434C1795.15 937.862 1797.98 933.623 1799.91 928.956C1801.85 924.29 1802.84 919.289 1802.84 914.238C1802.84 909.187 1801.85 904.186 1799.91 899.52C1797.98 894.854 1795.15 890.614 1791.58 887.042C1788 883.471 1783.77 880.638 1779.1 878.705C1774.43 876.772 1769.43 875.777 1764.38 875.777C1759.33 875.777 1754.33 876.772 1749.66 878.705C1745 880.638 1740.76 883.471 1737.18 887.042C1733.61 890.614 1730.78 894.854 1728.85 899.52C1726.91 904.186 1725.92 909.187 1725.92 914.238V914.238Z" fill="#FEE715"/>
<path d="M1955.84 1059.2H2012.61V1114.87H1955.84V1059.2Z" stroke="#FEE715" stroke-width="1.96429"/>
</g>
<defs>
<clipPath id="clip0_217_2262">
<rect width="2828.57" height="1100" fill="white"/>
</clipPath>
</defs>
</svg>
