<svg width="861" height="761" viewBox="0 0 861 761" fill="none" xmlns="http://www.w3.org/2000/svg">
<g clip-path="url(#clip0_25_649)">
<path d="M656.84 7.84029C646.484 7.61011 626.112 14.8978 619.804 17.9278C613.496 20.9584 601.519 30.1255 599.772 44.8927C598.238 88.2748 633.655 93.2617 633.655 93.2617L633.357 105.65C633.357 105.65 621.21 109.564 617.459 118.846C615.547 123.579 614.682 136.133 614.367 149.147C600.919 146.418 584.684 143.51 584.684 143.51L583.362 97.7495L495.905 92.5328L496.757 169.63C538.326 179.687 554.125 177.225 583.533 181.406C583.533 181.406 601.744 174.17 614.265 169.056C614.325 173.962 614.43 178.357 614.561 181.406C615.157 195.33 640.048 185.549 659.525 189.461C679.003 193.374 680.496 186.047 683.351 173.121C686.207 160.194 676.232 119.268 676.232 119.268L699.376 106.494C699.376 106.494 695.156 72.9321 692.045 44.3562C688.934 15.7799 667.197 8.07047 656.84 7.84029ZM234.3 40.3012C217.575 40.5132 197.309 49.4725 191.969 70.9903C185.397 97.4741 203.593 109.215 223.555 113.143C237.876 115.395 244.792 108.729 257.004 90.3673C269.217 72.0053 262.449 45.9628 245.085 41.5045C241.83 40.6686 238.16 40.2521 234.3 40.3012ZM300.851 119.191C300.851 119.191 272.012 120.118 270.933 121.795C269.854 123.472 261.076 141.083 260.781 148.366C260.487 155.649 252.394 161.52 252.394 161.52C252.394 161.52 240.917 144.659 235.522 135.787C230.127 126.915 215.953 131.814 201.877 132.123C187.8 132.432 182.994 140.465 179.512 149.955C176.03 159.445 175.833 206.763 178.776 228.348C183.141 244.149 246.165 225.346 247.587 217.931C249.01 210.515 247.342 182.795 247.342 182.795C247.342 182.795 256.71 169.774 256.514 180.411C256.318 191.049 260.045 191.138 275.396 190.52C290.747 189.902 292.611 170.128 296.241 159.755C299.871 149.382 300.851 119.191 300.851 119.191ZM418.606 213.503C386.627 214.232 361.579 226.112 345.293 235.489C321.603 249.128 268.291 285.632 255.147 334.715C242.002 383.798 270.301 449.698 284.132 470.223C284.132 470.223 305.457 514.511 382.557 515.879C459.657 517.247 475.117 483.597 514.893 449.036C554.669 414.475 552.707 320.149 546.233 302.007C539.759 283.866 521.466 238.49 466.338 220.702C449.11 215.144 433.142 213.171 418.606 213.503ZM90.8852 269.452C72.1677 269.79 55.7256 280.584 50.5172 295.399C50.5172 295.399 44.7397 331.76 74.8928 346.361C105.046 360.962 129.224 326.489 132.073 315.734C134.922 304.979 127.84 276.916 104.097 270.969C99.6451 269.854 95.2046 269.375 90.8852 269.452ZM789.33 332.991L668.3 347.837L677.669 428.719L722.936 426.802L726.353 442.144L692.072 451.138C692.072 451.138 690.015 455.635 690.382 466.151C690.75 476.666 699.532 489.53 699.532 489.53L723.781 490.125L775.441 478.254C775.441 478.254 773.126 488.901 771.032 499.285C768.938 509.667 775.955 538.237 775.955 538.237C775.955 538.237 794.29 543.097 807.811 541.312C821.333 539.526 843.635 533.409 843.415 529.574C843.195 525.738 839.704 509.469 839.704 509.469L854.364 506.691C854.364 506.691 839.153 413.74 830.444 397.008C821.737 380.276 798.111 375.912 798.111 375.912L789.33 332.991ZM57.4817 360.25C39.0811 359.787 27.5271 380.691 16.0115 401.418C4.49647 422.144 3.98139 443.939 4.61428 459.288C3.94189 477.949 72.8354 474.602 82.9258 472.002C93.0166 469.402 101.762 459.609 102.276 458.612C102.791 457.615 153.837 453.413 155.104 449.424C156.37 445.435 169.23 391.66 168.478 390.058C167.727 388.455 113.673 392.514 113.673 392.514C113.673 392.514 112.723 393.654 113.831 387.244C114.939 380.834 110.111 374.175 105.085 369.759C100.06 365.343 75.8823 360.713 57.4817 360.25ZM208.382 524.038C206.907 524.024 205.469 524.18 204.093 524.522C193.086 527.257 180.193 534.178 180.193 534.178C180.193 534.178 162.187 520.212 152.839 526.097C143.491 531.982 127.695 541.887 131.517 558.63C135.34 575.373 147.037 597.628 142.385 607.989C142.385 607.989 153.576 603.223 156.799 598.416C160.023 593.608 166.792 586.894 166.792 586.894C166.792 586.894 176.463 604.094 185.903 604.549C195.343 605.005 215.789 606.29 223.019 596.468C230.249 586.646 241.256 562.236 235.684 546.528C230.808 532.785 218.705 524.15 208.382 524.038ZM276.023 567.955C276.023 567.955 266.583 589.049 259.906 609.978C253.229 630.907 257.695 630.12 266.077 633.477C267.827 636.295 285.924 633.56 285.924 633.56L307.982 570.648L276.023 567.955ZM563.202 571.202L456.059 580.544L465.638 660.015L563.843 647.353L563.202 571.202ZM593.666 590.501C593.586 598.221 590.178 626.719 602.925 637.469C615.671 648.219 626.934 651.61 637.596 649.554C648.259 647.498 659.242 639.309 662.449 626.9C665.656 614.49 663.571 597.355 663.571 597.355L593.666 590.501ZM194.961 620.599C193.157 620.64 191.243 620.836 189.218 621.209C167.621 625.188 169.187 642.553 164.766 663.98C162.924 671.315 170.154 677.739 182.863 687.851C195.573 697.964 220.44 700.243 220.487 691.747C220.532 683.251 219.796 657.68 219.75 645.495C219.709 634.453 212.405 620.211 194.961 620.599ZM661.091 656.293C648.835 656.233 627.945 667.818 621.644 682.525C619.76 691.832 619.038 732.198 621.644 748.756C623.808 768.2 663.731 742.876 670.465 730.178C681.394 709.192 681.942 657.721 662.249 656.336C661.872 656.309 661.486 656.295 661.091 656.295V656.293ZM571.996 661.076C571.128 661.085 570.277 661.134 569.455 661.206C562.881 661.783 533.86 664.272 522.436 665.426C511.013 666.58 476.02 673.038 476.901 676.104C477.783 679.17 490.771 699.912 497.104 699.84C497.104 699.84 551.738 692.554 570.497 690.822C589.256 689.09 591.261 677.763 587.894 669.719C584.947 662.68 578.073 660.999 571.996 661.076Z" fill="#FEE715"/>
<path d="M218.6 0.162034V0.166467C210.813 0.625472 202.919 2.0489 199.059 4.19138C196.35 5.69551 191.32 8.26222 187.878 9.89666C184.438 11.5306 181.224 14.3909 180.736 16.2546C180.249 18.1178 177.826 20.5643 175.353 21.6921C172.327 23.0704 170.854 25.2803 170.854 28.4384C170.854 31.3717 169.805 33.1337 168.06 33.1337C165.338 33.1337 164.48 35.24 165.159 40.256C165.343 41.6125 164.468 43.959 163.214 45.47C161.133 47.9761 160.582 50.4801 158.955 64.7965C158.665 67.3571 157.76 70.9716 156.945 72.8294C156.073 74.8185 156.45 78.2667 157.858 81.21C159.174 83.9613 160.108 88.7285 159.933 91.8012C159.573 98.1833 160.638 100.073 167.078 104.48C172.788 108.388 178.703 108.485 185.857 104.786C191.248 101.999 191.481 102.076 197.131 108.511C200.741 112.621 206.144 116.08 211.555 117.746C222.731 121.181 227.839 121.154 236.972 117.605C241.069 116.015 246.988 112.095 246.988 112.095C253.491 118.322 258.265 110.387 254.619 106.142C262.53 99.5775 265.967 90.7785 268.706 81.0859C269.63 76.0205 270.916 74.1028 273.39 74.1028C277.889 74.1028 282.601 67.1558 282.601 60.5277C282.601 57.6157 283.487 53.5805 284.568 51.5592C286.915 47.173 285.441 41.6378 280.755 37.2561C278.875 35.4977 277.056 31.5499 276.711 28.4854C276.27 24.5795 274.55 22.1796 270.961 20.4675C267.924 19.0187 265.839 16.5274 265.839 14.3437C265.839 12.3183 264.373 10.1421 262.581 9.50649C260.789 8.87088 257.884 7.11613 256.126 5.60927C254.262 4.00843 250.897 3.25904 248.043 3.80476C245.354 4.31915 240.611 3.46866 237.5 1.91866C234.068 0.205683 226.387 -0.298312 218.6 0.161147V0.162034ZM655.999 3.51657C650.106 3.51203 644.089 4.98926 638.182 7.98573C633.142 10.5432 626 12.642 622.31 12.642C613.662 12.6511 604.175 19.0693 598.814 28.5359C591.594 41.2804 593.95 72.3941 602.941 83.0801C606.175 86.9242 606.95 89.4061 606.95 89.4061C603.406 95.7378 607.18 102.776 616.032 92.8396C616.032 92.8396 617.55 92.9373 620.017 94.2336C639.372 104.407 678.375 88.1441 678.375 69.8997C678.375 66.2408 677.482 62.9495 676.391 62.5849C675.302 62.2217 673.944 58.4624 673.377 54.2301C672.405 46.9859 671.861 46.3988 664.093 44.2241C659.554 42.9542 648.887 39.3936 643.741 32.8685C636.105 23.3615 633.273 21.1372 621.269 29.412C607.917 37.8798 602.946 36.4362 612.512 26.8706C615.215 24.1693 620.871 21.0392 625.083 19.915C629.296 18.7905 634.969 16.6966 637.687 15.2605C643.551 12.1651 655.555 11.8634 662.888 14.6274C677.746 20.229 685.372 35.8158 689.527 69.083C690.654 78.0987 692.356 87.5269 693.31 90.0357C694.772 93.8826 694.49 94.598 691.513 94.598C689.021 94.598 687.624 96.3787 686.764 100.65C684.6 111.402 683.83 113.014 680.314 114.13C678.068 114.843 675.003 113.499 671.563 110.293C668.651 107.581 664.327 104.615 661.956 103.704C655.621 101.27 632.288 101.636 630.708 104.193C628.427 107.884 635.841 111.36 645.994 111.36C666.032 111.36 675.375 127.863 675.501 163.508C675.546 175.289 676.258 185.975 677.086 187.255C679.318 190.704 683.566 190.08 685.758 185.981C689.206 179.54 688.091 146.509 683.986 133.411C679.569 119.319 679.715 120.673 682.616 120.673C683.924 120.673 687.029 119.247 689.517 117.505C692.005 115.763 695.669 114.218 697.659 114.072C701.765 113.769 706.31 108.42 706.31 103.893C706.31 102.227 705.139 96.7279 703.708 91.6771C702.276 86.6244 700.654 74.9489 700.101 65.7293C698.684 42.0372 693.133 25.4455 683.365 15.6915C675.305 7.64326 665.823 3.52338 655.999 3.51657ZM628.644 36.1495C631.257 36.4954 633.608 38.2532 638.331 42.3815C650.125 51.3114 654.648 53.6244 660.315 53.6244C664.109 53.6244 665.038 54.7653 666.004 60.6084C667.927 72.2456 667.51 73.2176 658.769 77.4644C654.131 79.7177 649.993 81.5612 649.573 81.5612C649.152 81.5612 649.3 78.5315 649.901 74.8273C651.584 64.3174 645.789 69.4283 642.486 76.8082L639.734 82.9578C631.251 86.5817 623.388 82.9019 623.388 82.9019C623.388 78.2869 621.171 73.7531 615.016 77.2844C609.654 74.411 605.777 67.6656 605.75 49.8602C605.736 38.6398 605.884 41.3306 617.378 38.3832C623.153 36.8681 626.03 35.8031 628.644 36.1495ZM236.076 50.5829C237.104 50.5648 238.25 50.9507 239.717 51.7357C241.869 52.8911 245.122 53.3578 246.944 52.7794C249.035 52.1147 251.846 53.4184 254.562 56.3086C258.244 60.2285 258.746 62.3398 258.033 70.9274C257.21 80.8648 250.958 95.8171 247.879 95.2196C244.577 92.9523 239.087 94.9561 240.883 101.168C240.883 101.168 238.831 103.382 235.994 104.952V104.947C226.022 110.468 206.792 106.31 202.144 97.6271C197.69 89.3028 197.254 82.0822 200.873 76.5928C202.787 73.6889 204.367 69.8454 204.367 68.0535C204.372 65.8574 205.838 64.7947 208.85 64.7947C211.957 64.7947 214.458 62.8715 217.038 58.4962C220.104 53.3018 221.604 52.3633 225.614 53.1287C228.288 53.64 231.671 53.0628 233.136 51.8474C234.136 51.0211 235.048 50.6002 236.076 50.5829ZM629.741 59.0814C627.008 59.7207 625.865 62.4402 626.914 65.1724C628.431 69.1241 634.479 68.1672 635.201 63.2562C635.588 60.627 634.753 59.674 632.983 59.2118C631.741 58.8863 630.653 58.8685 629.741 59.0814ZM613.422 59.5257C612.53 59.6215 611.663 59.9914 610.953 60.7006C609.862 61.793 609.496 64.0619 610.142 65.7426C611.632 69.6285 617.601 68.5929 618.427 64.3061C618.983 61.4199 616.096 59.2387 613.422 59.5257ZM226.807 71.3628C224.35 71.3628 221.14 76.734 221.14 80.0714C221.14 84.1866 227.493 84.5409 229.264 80.6292C232.946 72.4956 228.85 71.3628 226.807 71.3628ZM244.404 73.5388C240.981 73.5388 237.154 80.7039 238.784 83.3408C240.707 86.4544 245.058 85.593 247.15 81.6835C249.904 76.5373 247.608 73.5388 244.404 73.5388ZM497.683 86.0702C494.158 85.9268 491.611 87.101 490.847 92.0025C487.817 102.983 491.036 169.643 494.74 172.614C498.93 175.977 508.773 177.819 541.372 182.273C548.538 183.253 561.226 183.508 569.421 184.844C591.647 188.472 590.988 188.598 615.256 176.08C631.709 167.595 638.302 163.194 639.586 159.839C640.944 156.286 640.649 154.73 638.288 153.003C635.508 150.97 635.584 150.579 639.11 148.693C646.558 144.706 641.424 131.659 632.136 130.975C630.297 130.839 626.117 129.621 622.851 128.268C615.141 125.074 607.401 128.054 600.748 136.776C598.128 140.212 594.407 143.023 592.48 143.023C589.252 143.023 588.977 141.329 588.977 121.482C588.977 109.634 588.136 98.3713 587.109 96.4522C584.864 92.2571 577.124 90.9693 548.933 90.1049C537.665 89.7598 520.32 88.8318 510.39 88.045C505.711 87.6745 501.208 86.2132 497.683 86.0702ZM501.354 96.8113C504.033 96.7005 508.525 97.6342 515.095 97.957C523.57 99.1823 541.144 100.185 554.152 100.185C571.696 100.185 577.866 100.786 578.051 102.514C578.187 103.794 578.391 120.975 578.517 140.692C578.655 163.651 578.063 176.449 576.87 176.281C562.66 174.273 551.982 175.006 543.015 174.077C539.734 173.737 528.917 172.269 519.783 170.556L503.831 167.565C500.181 166.815 500.536 169.401 500.037 162.275C498.715 143.382 499.375 112.869 498.482 101.93C497.806 98.0773 498.674 96.9221 501.354 96.8113ZM295.12 113.439C293.17 113.295 291 113.314 288.605 113.498C285.411 113.743 281.819 114.281 277.825 115.111C266.758 117.408 264.427 120.047 260.468 134.763C258.5 142.078 249.077 153.65 249.077 148.749C249.077 142.558 242.398 133.228 234.762 128.753C227.407 124.442 225.075 124.017 213.121 124.807C183.322 126.776 173.16 137.859 171.378 170.328C170.214 191.542 173.397 219.298 177.949 227.603C181.003 233.179 181.126 232.125 182.028 192.288C183.086 145.698 183.883 142.81 196.651 139.372C220 133.085 230.162 136.042 237.994 151.403C240.606 156.524 243.731 160.511 244.941 160.262C248.833 159.461 245.176 176.905 239.768 184.928C237.007 189.025 229.962 200.548 224.111 210.536C218.26 220.523 212.787 228.695 211.949 228.695C209.972 228.695 203.625 213.809 200.038 200.758C198.49 195.125 196.663 183.407 195.979 174.717C194.664 158.026 192.813 152.334 188.699 152.334C185.098 152.334 183.944 158.411 183.917 177.552C183.881 202.069 193.681 234.217 203.232 240.907C209.684 245.426 217.042 244.233 223.007 237.702C225.969 234.461 233.572 222.264 239.905 210.598L251.419 189.385L255.758 193.46C261.223 198.595 272.619 197.742 285.776 191.219C294.198 187.042 294.951 186.046 298.975 173.753C301.322 166.581 304.659 152.51 306.391 142.48C309.219 126.108 309.253 123.729 306.721 119.2C304.817 115.793 300.967 113.875 295.12 113.439ZM285.797 122.535H298.016L296.747 134.913C295.481 147.278 293.148 154.198 290.245 154.198C289.398 154.198 289.087 152.2 289.554 149.759C290.914 142.641 286.666 142.145 277.951 148.404C268.873 154.924 265.152 155.748 266.506 150.937C267.011 149.145 267.965 144.745 268.627 141.159C269.289 137.575 270.673 131.918 271.704 128.588C273.569 122.562 273.638 122.535 285.797 122.535ZM591.879 146.746C593.477 146.746 594.265 147.585 593.632 148.61C593 149.634 591.692 150.472 590.728 150.472C589.764 150.472 588.977 149.634 588.977 148.61C588.977 147.585 590.282 146.746 591.879 146.746ZM603.848 149.638C604.719 149.679 604.872 150.587 604.38 152.474C603.338 156.459 603.167 156.591 601.393 154.817C599.422 152.848 599.937 150.953 602.734 149.88C603.187 149.706 603.557 149.624 603.848 149.638ZM615.887 152.47C616.607 152.544 616.913 153.426 616.913 155.127C616.913 158.276 621.657 158.93 623.451 156.029C624.093 154.988 625.451 154.65 626.465 155.277C627.528 155.933 626.881 157.501 624.94 158.974C620.806 162.107 618.972 162.152 613.845 159.252C610.516 157.371 610.269 156.6 612.368 154.663C614.03 153.131 615.166 152.396 615.887 152.47ZM592.062 156.29C592.936 156.003 594.332 156.575 596.426 157.95C598.909 159.58 598.909 159.988 596.426 161.619C592.237 164.368 590.838 163.908 590.838 159.785C590.838 157.723 591.188 156.577 592.062 156.29ZM603.363 161.863C607.107 162.07 613.033 164.113 612.163 165.523C610.895 167.576 609.882 167.538 604.071 165.214C601.618 164.231 600.091 162.949 600.678 162.361C601.108 161.93 602.114 161.794 603.363 161.863ZM594.454 169.097C599.137 169.097 600.985 172.104 597.194 173.558C592.544 175.342 590.838 174.894 590.838 171.89C590.838 170.353 592.465 169.097 594.454 169.097ZM285.931 176.772C286.202 176.88 286.022 177.252 285.395 177.888C284.371 178.925 279.402 181.145 274.354 182.817C263.619 186.375 263.976 186.326 263.976 184.216C263.976 183.314 267.641 181.654 272.118 180.527C276.596 179.398 281.834 177.919 283.759 177.237C284.937 176.82 285.66 176.664 285.931 176.772ZM625.583 192.283C623.074 192.475 618.355 196.265 611.448 207.232C598.222 228.232 565.284 273.313 562.179 277.561C559.866 277.533 557.576 277.429 555.181 277.676L545.103 278.716L537.589 266.821C513.861 229.249 461.053 204.496 409.425 206.745C384.439 207.833 372.105 212.515 341.269 232.618C316.902 248.504 302.431 258.926 291.339 269.506C284.872 263.197 265.593 244.238 254.261 231.264C249.818 226.179 247.295 224.394 246.119 224.46C243.873 224.587 246.534 231.461 250.113 234.995C255.564 241.859 281.018 268.549 286.513 274.229C279.662 281.456 273.961 289.126 267.535 298.968C250.707 324.746 246.482 341.614 247.645 378.371C248.563 407.372 251.03 416.624 266.064 447.437C270.038 455.583 273.29 462.62 273.29 463.074C273.29 465.26 246.318 461.273 238.892 457.989C230.862 454.437 230.452 453.886 230.452 446.627C230.452 437.897 235.318 427.319 243.749 417.716C252.694 407.535 248.295 407.498 237.962 417.675C233.327 422.241 229.762 426.998 227.091 431.719C223.397 430.757 208.089 426.761 198.869 424.534C195.648 423.756 192.217 423.435 189.303 423.45C182.892 423.482 178.976 425.144 185.263 427.155C196.181 428.314 215.937 434.427 224.688 436.344C220.309 446.554 220.852 456.179 226.961 462.682C239.786 473.527 255.448 474.231 265.063 475.458C265.063 475.458 239.609 511.951 233.779 520.831C227.016 530.363 236.426 528.103 239.6 520.999C242.742 513.966 271.995 476.997 272.579 476.259L281.593 477.011L295.713 491.142C312.268 507.707 326.905 516.932 343.912 521.521C353.782 524.189 361.791 524.711 385.038 524.216C411.648 523.65 415.248 523.144 431.082 517.748C457.089 508.886 478.345 497.324 496.107 482.171L550.192 556.493C555.684 562.099 556.899 556.368 554.862 553.356C538.884 531.732 520.177 503.3 501.796 476.876C517.645 461.974 530.666 443.973 541.493 421.725C551.014 402.161 558.205 377.021 558.232 363.237C558.246 355.856 559.202 354.35 571.843 341.817C587.359 326.435 592.138 317.793 593.246 303.105C593.929 294.06 593.42 292.052 589.161 286.991C585.469 282.603 578.74 279.727 570.842 278.359L625.572 200.29C628.431 196.477 628.426 192.073 625.581 192.29L625.583 192.283ZM399.452 219.698C402.448 219.545 405.626 219.57 409.249 219.72L423.217 220.307L418.091 223.784C415.272 225.694 404.512 229.258 394.181 231.699C372.883 236.734 374.971 236.593 366.554 233.551L360.179 231.247L370.28 227.271C383.113 222.222 390.464 220.155 399.452 219.696V219.698ZM432.38 220.184C434.114 219.74 439.218 220.9 452.302 224.393L462.764 227.184L461.867 235.12C461.015 242.679 461.378 243.393 469.492 250.176C483.998 262.302 483.434 272.249 467.739 281.106C462.169 284.25 456.3 288.62 454.699 290.817C451.95 294.59 451.848 294.292 452.851 285.501C456.02 257.717 456.069 255.658 453.63 252.467C449.411 246.955 440.81 246.49 433.561 251.381C423.911 257.895 419.855 266.226 419.659 279.926C419.428 296.105 423.052 300.184 436.187 298.523C441.346 297.871 446.947 296.949 448.633 296.476C451.103 295.783 451.834 297.307 452.39 304.297C453.364 316.543 450.961 319.275 442.051 316.052C436.084 313.894 434.398 313.936 430.093 316.346C424.014 319.748 420.67 328.704 420.528 341.963C420.426 351.657 422.665 358.636 426.755 361.367C432.764 365.379 452.055 361.187 457.436 354.7C461.4 349.919 464.897 351.021 468.282 358.117C472.316 366.577 476.161 367.575 486.727 362.902C491.495 360.793 496.442 359.067 497.719 359.067C500.224 359.067 506.355 370.177 505.032 372.319C504.592 373.031 500.426 375.844 495.774 378.571L487.316 383.529L480.546 377.583C465.103 364.025 452.292 363.043 422.072 373.097C394.726 382.196 388.71 387.466 388.874 402.183C388.935 407.663 389.692 416.337 390.555 421.459C391.42 426.582 391.491 431.447 390.715 432.273C389.936 433.097 379.916 437.078 368.443 441.119C356.973 445.16 347.003 448.446 346.291 448.419C345.578 448.391 341.324 442.5 336.84 435.323C327.719 420.723 314.541 408.328 305.417 405.766C297.745 403.613 289.767 405.771 278.131 413.151C273.184 416.288 268.735 418.456 268.246 417.969C267.757 417.48 268.713 412.419 270.369 406.721C273.639 395.47 274.482 394.927 290.052 394.014C297.598 393.572 298.797 392.841 302.101 386.671C305.678 379.99 305.684 379.726 302.309 375.998C299.518 372.912 299.292 371.642 301.138 369.417C306.198 363.32 310.547 363.995 317.343 371.935C323.051 378.603 324.836 379.551 331.636 379.538C341.483 379.515 354.639 372.078 367.772 359.111C382.573 344.498 384.874 330.331 374.845 315.552C366.726 303.589 365.746 300.589 364.529 283.992C363.433 269.061 362.828 267.087 357.792 262.052C354.749 259.01 347.388 254.541 341.435 252.12L330.61 247.72L338.732 243.09C353.823 234.486 353.033 234.617 362.201 239.258C366.913 241.644 372.55 243.595 374.73 243.595C381.306 243.595 413.054 236.202 418.309 233.447C424.386 230.261 431.599 223.581 431.599 221.137C431.599 220.659 431.802 220.333 432.38 220.184ZM473.199 232.42C478.24 232.42 500.401 246.131 509.707 255.007C527.149 271.642 535.311 287.805 541.427 317.818C547.365 346.951 547.76 345.637 529.396 357.858C520.699 363.644 513.156 368.38 512.633 368.38C512.111 368.38 511.684 367.187 511.684 365.728C511.684 364.271 509.515 360.5 506.862 357.348C501.168 350.581 495.891 350.083 486.068 355.384L479.091 359.15L475.928 354.918C469.246 345.979 466.809 344.168 461.463 344.168C457.983 344.168 455.256 345.451 454.085 347.638C451.673 352.144 442.733 355.791 435.989 355.02C430.694 354.414 430.667 354.349 430.667 341.191C430.667 324.655 432.703 321.819 444.575 321.819C455.183 321.819 460.253 317.362 459.964 308.292C459.617 297.324 461.121 294.4 469.299 290.172C492.189 278.336 495.106 263.293 477.674 246.979C468.621 238.507 466.749 232.42 473.199 232.42ZM402.664 251.91C400.171 252.381 397.728 253.928 395.358 256.547C391.433 260.883 392.863 266.525 398.581 269.258C410.506 274.961 421.132 260.844 410.272 253.727C407.701 252.043 405.158 251.439 402.664 251.91ZM440.808 253.683C441.991 253.4 442.952 254.177 444.712 255.77C448.727 259.404 449.337 264.995 446.523 272.396C445.514 275.053 444.489 279.815 444.248 282.978C444.008 286.14 442.948 288.979 441.894 289.286C433.484 291.74 429.582 291.876 428.92 289.737C425.041 277.204 427.348 266.183 435.575 257.956C438.222 255.308 439.626 253.965 440.808 253.683ZM322.728 255.186C323.83 255.164 325.031 255.326 326.492 255.601C337.222 257.614 348.818 263.368 353.093 268.802C356.35 272.944 357.1 276.401 357.1 287.298C357.1 300.928 357.136 301.041 369.621 324.344C374.31 333.098 370.408 341.883 355.946 355.134C349.205 361.312 339.896 368.202 335.258 370.447C326.611 375.786 326.095 373.736 319.688 366.799C311.879 358.341 309.341 357.665 301.189 361.881C293.589 365.811 290.887 371.363 293.867 376.93C297.433 383.592 293.322 387.569 284.426 386.067C278.749 385.107 276.573 385.753 271.709 389.848C268.481 392.563 265.839 396.337 265.839 398.233C265.839 400.131 265.086 402.149 264.167 402.718C259.502 405.601 256.793 363.078 260.369 343.114C264.628 319.342 287.541 282.742 311.05 262.158C317 256.95 319.423 255.249 322.728 255.186ZM404.79 255.751C405.36 255.883 405.794 256.509 406.238 257.668C406.871 259.314 407.387 261.431 407.387 262.372C407.387 263.313 405.71 264.081 403.661 264.081C399.377 264.081 398.725 259.957 402.513 256.813C403.51 255.986 404.219 255.62 404.79 255.751ZM93.5823 262.977C91.4172 263.105 89.2328 263.394 87.0426 263.85C64.5591 268.532 59.2601 270.483 58.7157 274.282C58.4193 276.355 56.3602 278.847 54.1419 279.821C50.0381 281.623 49.693 282.57 45.9547 302.298C42.8288 318.804 45.3713 325.973 59.6512 340.898C78.307 358.238 95.5862 356.669 113.715 349.476C121.045 358.156 129.476 352.183 123.934 344.481C123.934 344.481 125.061 344.028 127.879 340.443C135.3 330.999 137.229 326.776 139.339 315.355C141.649 302.858 139.648 294.295 131.565 282.091C122.953 269.088 108.738 262.081 93.5823 262.977ZM83.6535 273.514C85.3279 273.528 87.3459 273.656 89.8811 273.859C105.194 275.089 113.93 279.579 121.001 289.856C125.589 296.525 126.822 300.232 126.725 307.001C126.546 318.866 122.443 324.3 122.443 324.3C112.302 326.524 116.863 329.341 119.386 330.115L116.513 334.443C111.096 329.546 107.531 333.201 107.531 336.562C107.531 339.112 105.821 341.185 102.754 342.35C94.0178 345.672 81.0841 344.468 72.9169 339.57C60.3521 332.039 49.7125 312.506 58.1757 312.506C61.4809 312.506 61.9166 307.724 58.7876 305.791C57.3474 304.9 58.0017 303.926 60.7171 302.921C64.7206 301.441 64.7422 301.268 61.595 296.245L58.3646 291.088C58.282 285.557 61.7252 294.083 63.4163 295.626C70.2946 301.897 73.4541 298.839 70.2247 289.056C68.0092 282.344 68.1438 281.82 73.1847 277.484C76.7005 274.458 78.6299 273.474 83.6535 273.514ZM549.927 286.296C554.379 285.893 572.448 288.648 576.599 290.627C583.199 293.774 584.165 304.078 578.883 314.989C574.705 323.619 561.564 337.553 559.526 335.514C558.822 334.811 558.246 331.967 558.246 329.196C558.246 326.425 556.151 315.898 553.589 305.803C551.028 295.707 548.933 287.1 548.933 286.674C548.933 286.476 549.291 286.354 549.927 286.296ZM102.804 310.13C101.542 310.374 100.239 311.608 98.2767 313.384C94.5316 316.775 95.2912 320.488 97.6897 322.885C100.347 325.347 102.052 323.975 104.981 320.775C107.863 316.376 108.748 314.358 105.959 311.57C105.262 310.873 104.652 310.44 104.073 310.233C103.639 310.077 103.224 310.048 102.804 310.13ZM116.909 312.506C112.943 312.506 109.385 317.601 110.73 321.352C112.597 326.557 120.567 322.105 120.567 315.858C120.567 313.767 119.19 312.506 116.909 312.506ZM88.4357 320.452C87.3025 320.439 86.7045 321.536 86.5097 321.732C84.744 323.497 88.4119 329.83 92.2061 331.563C95.7892 333.2 102.958 331.76 102.874 329.396C102.681 324.056 95.6978 329.687 93.5708 325.823C91.2367 321.585 89.5685 320.465 88.4357 320.452ZM784.793 329.806C779.744 329.977 772.253 330.598 761.772 331.689C745.609 333.372 726.518 335.267 719.348 335.903C700.025 337.614 671.723 342.246 667.821 344.333C663.435 346.681 663.261 363.384 667.211 402.836C670.498 435.66 670.837 436.199 687.221 434.607C721.559 431.269 719.185 431.223 721.671 435.287C723.758 438.7 723.475 439.2 718.877 440.215C686.353 447.403 683.818 449.274 685.638 464.758C687.581 481.292 691.656 489.073 699.514 491.256C703.253 492.294 709.244 493.165 712.829 493.178C726.151 493.253 726.737 493.868 730.024 511.287C733.558 530.006 737.666 536.681 746.173 537.523C751.162 538.018 753.304 536.842 759.225 530.365C765.051 523.992 766.521 523.169 767.506 525.735C768.165 527.452 768.703 529.99 768.703 531.376C768.703 532.761 769.542 536.104 770.569 538.803C771.945 542.422 773.527 543.553 776.603 543.115C782.29 542.303 782.753 537.766 778.88 520.813C776.159 508.898 775.952 504.65 777.665 496.111C779.488 487.038 784.932 475.249 786.553 476.868C786.873 477.189 788.361 485.69 789.86 495.758C791.357 505.826 793.497 514.978 794.615 516.094C797.072 518.553 808.634 518.034 831.312 514.451C851.53 511.257 859.293 508.773 860.725 505.044C861.307 503.525 860.934 496.67 859.896 489.809C858.857 482.947 857.148 469.371 856.099 459.639C852.328 424.68 843.437 401.897 827.249 385.707C819.829 378.288 815.683 375.642 810.066 374.744C802.874 373.594 802.633 373.315 801.61 364.917C799.977 351.505 795.38 332.85 793.161 330.633C792.448 329.918 789.842 329.637 784.793 329.806ZM783.752 338.654C788.146 338.846 786.802 341.958 789.46 352.813C791.146 360.862 792.822 368.681 793.185 370.189C793.671 372.204 791.525 373.21 785.067 373.992C774.784 375.236 768.654 380.219 762.976 391.951C759.656 398.81 758.63 399.071 758.63 399.071C749.12 395.883 747.07 404.434 755.378 409.807C755.378 409.807 756.989 412.948 757.235 419.458C757.908 437.246 766.728 452.753 778.11 456.163C782.155 457.376 785.465 459.491 785.465 460.866C785.465 462.579 782.878 463.365 777.236 463.365C769.893 463.365 768.586 462.686 765.107 457.055C760.053 448.878 755.783 445.295 754.127 447.847C752.56 450.266 724.004 452.966 724.004 450.696C724.004 449.788 730.77 448.089 739.039 446.92C747.309 445.751 754.851 444.313 755.801 443.725C758.754 441.901 757.696 437.301 754.27 437.07C749.52 436.748 750.045 436.717 738.439 438.001C728.016 439.153 727.73 439.066 727.73 434.662C727.73 430.462 728.61 430.043 739.983 428.825C747.991 427.967 752.595 426.582 753.268 424.827C755.538 418.91 750.87 418.271 726.532 421.174C688.597 425.699 681.454 426.225 680.432 424.571C679.904 423.716 678.553 415.123 677.431 405.476C672.661 364.496 671.591 356.069 670.689 352.376C669.784 348.671 670.83 348.372 691.748 346.342C703.856 345.167 725.913 343.334 740.766 342.27C755.619 341.205 771.963 339.848 777.084 339.256C780.185 338.85 782.287 338.589 783.752 338.654ZM575.354 339.111L572.533 343.334L654.465 394.392C659.307 398.089 662.79 394.231 659.136 391.256C632.931 370.902 599.983 352.946 575.354 339.111ZM59.2451 355.924C55.2371 355.892 52.5934 356.588 48.3675 357.991C34.3504 362.648 21.1486 378.817 9.59126 405.487C-0.792873 429.447 -3.37318 459.639 4.96336 459.639C9.10757 459.639 10.613 454.759 10.697 441.016C10.781 427.757 17.4395 409.03 28.7652 390.202C40.1859 371.218 46.7774 366.042 60.8226 365.025C72.0535 364.214 96.9813 368.836 102.105 372.68C106.305 375.833 109.393 382.244 109.393 387.814C109.393 392.686 106.87 394.18 104.666 390.615C102.2 386.623 94.1513 384.966 87.6562 387.109C82.8764 388.687 80.2425 391.383 76.7494 398.278C74.2151 403.277 72.1445 409.842 72.1445 412.867C72.1445 416.833 69.3095 421.687 61.9931 430.258C46.135 448.835 39.5478 450.718 33.6529 438.357C30.9139 432.613 35.2339 417.05 41.4988 402.96C46.7245 391.204 51.7936 380.465 52.3915 377.647C54.1095 369.547 44.3555 371.562 40.3434 380.63C35.7075 391.111 22.2483 409.095 22.621 436.118C23.1463 453.381 43.9795 463.971 65.3929 443.257C73.8929 435.056 74.397 434.825 73.2725 439.62C70.0935 453.183 69.7515 461.888 72.3316 463.577C75.1864 465.447 89.3443 464.447 117.296 460.404C127.276 458.959 139.106 457.778 143.585 457.778C153.843 457.778 160.679 452.717 162.334 443.897C163.003 440.324 165.674 434.879 168.268 431.797C170.862 428.714 172.513 425.432 171.939 424.503C171.365 423.573 172.142 421.777 173.668 420.511C176.784 417.925 177.446 406.469 174.58 404.697C173.556 404.065 172.717 401.174 172.717 398.276C172.717 395.376 171.25 391.225 169.457 389.049C166.068 384.937 163.815 384.953 123.403 389.394C120.401 389.723 119.52 388.363 118.642 382.043C116.654 367.718 108.66 363 78.3065 358.238C68.6247 356.72 63.2531 355.957 59.2451 355.924ZM542.791 365.342C543.906 366.456 539.75 386.899 537.567 391.039C536.668 392.746 531.674 395.556 526.471 397.286C521.14 399.056 514.141 403.297 510.439 406.997C504.096 413.341 503.888 413.991 504.372 425.894C505.408 451.296 505.223 451.954 493.992 462.83C493.655 463.157 493.052 463.61 492.683 463.954C479.065 444.861 465.927 427.746 454.545 416.35C458.553 414.136 461.056 412.879 464.878 410.73C486.978 398.304 492.167 396.065 494.677 397.873C502.74 403.687 506.95 401.444 509.27 390.103C510.111 385.991 513.844 382.569 526.131 374.642C534.811 369.043 542.308 364.858 542.791 365.342ZM450.12 372.442C460.185 371.752 468.414 374.572 476.116 381.003L482.388 386.239L462.115 397.617C450.965 403.874 433.266 413.264 422.785 418.486C412.305 423.707 403.344 427.979 402.874 427.979C401.024 427.979 400.268 424.625 398.969 410.648C397.698 396.977 397.88 395.829 402.036 391.36C406.69 386.355 407.556 385.922 429.736 377.452C437.381 374.532 444.081 372.856 450.12 372.442ZM794.961 381.737C797.488 382.202 799.417 383.724 799.499 386.074C799.535 387.097 800.223 392.546 801.027 398.179C804.824 424.75 808.564 444.555 815.558 475.099C822.283 504.462 823.343 513.039 819.813 509.509C817.536 507.232 807.515 460.919 803.987 436.36C799.55 405.495 797.847 397.776 794.127 390.761C789.446 381.934 790.8 390.542 792.075 396.316C793.664 400.926 796.177 416.156 797.658 430.161C799.138 444.165 802.963 467.944 806.158 483C810.953 505.606 811.522 510.657 809.424 511.985C806.271 513.983 804.561 514.061 803.449 512.255C802.379 510.52 797.212 469.183 795.708 450.329C793.698 425.138 790.822 406.73 787.27 396.316C784.036 386.843 784.003 385.898 786.838 383.744C789.311 381.865 792.435 381.273 794.961 381.737ZM804.133 382.918C806.188 382.729 811.714 386.202 817.447 392.126C828.417 403.463 828.843 404.368 836.644 433.167C841.683 451.763 843.211 460.974 843.211 472.938C843.216 481.501 844.118 491.729 845.211 495.667C846.962 501.971 846.487 506.414 844.304 504.184C843.886 503.758 842.129 493.77 840.401 481.99C835.043 445.479 815.803 386.3 813.867 400.375C813.49 403.119 816.526 418.624 820.615 434.83C824.705 451.036 828.97 471.42 830.095 480.127C831.218 488.833 832.598 498.262 833.162 501.079C834.279 506.673 831.048 508.283 829.425 502.941C827.104 495.308 818.43 452.631 813.241 423.326C810.159 405.913 806.401 389.779 804.889 387.473C802.917 384.462 802.9 383.031 804.133 382.918ZM500.62 390.729C501.705 390.729 502.074 391.567 501.441 392.591C500.808 393.617 499.92 394.454 499.469 394.454C499.017 394.454 498.647 393.617 498.647 392.591C498.647 391.567 499.534 390.729 500.62 390.729ZM775.968 392.591C778.154 392.591 781.627 411.235 782.993 430.306C783.635 439.27 783.802 446.602 783.365 446.602C777.255 446.602 768.703 429.767 768.703 417.741C768.703 410.513 773.88 392.591 775.968 392.591ZM154.558 395.569C159.675 395.012 161.542 395.508 161.542 397.426C161.542 398.864 159.866 400.042 157.817 400.042C154.325 400.042 149.512 404.336 153.902 406.801C160.779 410.663 159.282 413.145 150.397 409.885C142.303 406.916 143.634 414.763 148.504 417.734C154.582 421.44 155.91 425.388 144.616 421.148C139.659 419.287 138.825 421.746 139.393 425.581C139.773 428.138 142.648 429.842 146.475 431.885C155.172 436.537 156.515 438.179 155.132 442.535C153.765 446.841 144.95 450.511 139.436 449.069C137.383 448.532 127.478 449.399 117.426 450.997C107.375 452.594 94.6951 454.44 89.2515 455.1C81.1084 455.93 78.9587 458.623 80.4142 450.053C83.0743 434.388 86.4168 415.913 87.8815 408.095C88.5026 400.602 91.9953 400.753 99.1927 400.041C115.004 398.49 150.717 395.988 154.558 395.569ZM530.502 405.808C531.536 405.794 532.171 406.119 532.171 406.869C532.171 407.773 528.367 415.188 523.717 423.347C512.175 443.601 511.684 443.858 511.684 429.629C511.684 418.821 512.241 416.97 516.805 412.629C520.708 408.917 527.4 405.846 530.502 405.808ZM299.92 413.078C307.915 413.078 334.495 441.133 334.698 449.783C334.726 451.02 328.862 453.786 321.664 455.929C303.58 461.315 291.378 462.603 288.913 459.387C285.557 455.004 277.554 440.382 274.514 433.08L271.6 426.076L284.504 419.576C291.601 416.002 298.539 413.078 299.92 413.078ZM450.059 418.79L450.027 418.84L486.636 469.147C481.43 473.475 475.766 477.889 471.178 480.842C464.262 485.294 455.906 490.314 452.608 491.999C446.663 495.037 446.591 495.02 443.979 489.923C442.53 487.096 439.473 477.273 437.184 468.094C434.895 458.915 432.191 449.578 431.174 447.347C429.134 442.869 422.484 439.204 416.145 439.062C413.491 439.003 416.646 436.641 425.079 432.375C429.58 430.098 440.541 424.01 450.058 418.79H450.059ZM399.006 446.263C414.721 446.562 417.386 446.84 420.504 448.508C422.647 449.657 424.691 454.231 426.095 461.031C427.314 466.924 430.307 477.295 432.748 484.077C435.188 490.859 437.186 496.845 437.186 497.378C437.186 499.229 422.83 504.076 408.706 506.993C396.347 509.546 365.271 510.824 359.894 509.001C358.869 508.654 355.029 507.87 351.361 507.259C345.122 506.222 344.55 505.542 342.515 496.722C340.211 486.745 339.722 474.217 341.395 468.021C342.163 465.171 348.389 462.166 367.908 455.227C381.939 450.239 395.933 446.207 399.006 446.263ZM713.872 450.329C721.095 450.329 722.455 453.035 716.089 454.741C710.653 456.201 708.141 456.196 706.672 454.727C704.296 452.35 707.604 450.333 713.872 450.333V450.329ZM695.958 452.191C701.179 452.191 702.793 456.065 698.789 458.991C693.838 462.612 692.343 462.115 692.343 456.846C692.343 453.479 693.343 452.191 695.958 452.191ZM753.117 454.052C757.564 454.052 762.281 460.195 760.298 463.404C758.323 466.598 752.979 465.256 749.698 460.739C746.087 455.769 746.964 454.052 753.117 454.052ZM736.237 455.927C739.514 456.338 742.841 457.689 744.106 459.716C745.417 461.806 745.984 464.321 745.376 465.304C743.529 468.292 739.071 467.306 736.609 463.365C735.33 461.315 732.759 459.639 730.896 459.639C729.034 459.639 728.027 458.802 728.662 457.778C729.733 456.045 732.96 455.515 736.237 455.927ZM719.798 458.229C721.594 458.282 722.823 459.368 724.072 461.793C725.933 465.401 725.895 465.755 723.86 463.83C719.527 459.734 716.019 460.983 717.32 466.159C719.025 472.952 714.159 472.169 711.538 465.228C709.945 461.013 709.96 459.628 711.594 459.615C712.786 459.601 715.575 459.103 717.792 458.508C718.538 458.308 719.199 458.21 719.798 458.229ZM700.685 461.65C704.526 461.546 706.384 465.458 703.595 470.669C702.457 472.797 700.312 474.54 698.832 474.54C695.053 474.54 692.973 465.289 696.281 463.193C697.904 462.165 699.404 461.685 700.685 461.65ZM782.621 467.712C786.288 467.576 785.452 468.863 780.143 471.609C773.178 475.212 770.566 475.315 770.566 471.99C770.566 470.493 773.409 468.979 777.453 468.322C779.676 467.962 781.399 467.758 782.621 467.712ZM330.528 467.877L331.643 483.689C332.262 492.386 332.541 499.719 332.276 499.984C332.009 500.251 328.728 498.615 324.983 496.351C316.598 491.281 300.163 475.819 302.392 475.1C303.288 474.81 309.984 473.068 317.274 471.225L330.528 467.877ZM761.349 469.047C763.399 469.32 765.728 470.597 766.841 472.678C768.573 475.916 768.257 476.402 764.423 476.402C759.425 476.402 757.528 475.035 757.528 471.436C757.528 469.503 759.3 468.773 761.349 469.047ZM744.952 470.744C747.369 470.744 750.393 471.743 752.059 473.749C754.078 476.183 754.038 476.974 751.822 478.376C748.34 480.582 742.629 480.607 742.629 478.418C742.629 477.478 742.12 475.383 741.498 473.762C740.728 471.753 742.535 470.747 744.952 470.744ZM718.476 474.54C719.467 474.54 720.28 475.797 720.28 477.333C720.28 478.87 719.95 480.127 719.548 480.127C719.144 480.127 718.332 478.87 717.743 477.333C717.153 475.797 717.484 474.54 718.476 474.54ZM698.823 476.22C700.496 475.88 704.172 478.235 706.821 481.818C710.063 486.204 710.319 487.427 708.169 488.253C705.854 489.141 697.93 480.829 697.93 477.512C697.93 476.746 698.265 476.333 698.823 476.22ZM766.564 481.99C770.163 481.99 770.17 482.174 766.915 492.921C765.089 498.948 760.053 508.556 755.687 514.339C744.766 535.786 742.222 516.644 738.479 501.125C736.985 496.914 738.942 493.747 741.241 491.046C745.188 486.407 757.542 481.99 766.564 481.99ZM126.631 552.475C125.831 563.956 126.262 565.797 132.48 577.467C140.253 592.058 140.735 596.861 135.137 603.978C131.153 609.043 131.144 609.181 134.671 611.795C136.8 613.368 140.381 614.041 143.469 613.438C150.081 612.146 161.033 603.864 162.581 598.984C163.726 595.378 163.934 595.411 168.705 599.982C179.073 609.911 196.127 613.112 212.544 608.211C217.211 606.816 224.015 602.241 229.939 596.511C238 588.718 240.373 587.361 243.777 588.62C249.469 590.726 254.506 585.928 251.017 581.725C249.7 580.137 247.142 578.838 245.331 578.838C242.383 578.838 242.126 577.231 242.867 563.473C244.11 547.806 239.219 534.204 225.918 527.365C215.434 522.201 201.647 516.175 185.228 527.755C180.977 530.754 181.578 528.15 175.521 524.585C157.845 514.178 130.026 523.069 126.631 552.475ZM221.14 539.551C221.14 540.453 220.093 541.597 218.813 542.094C212.547 544.528 193.091 561.064 186.139 569.863C181.836 575.31 177.138 581.423 175.701 583.446C173.241 586.905 172.949 586.628 170.797 578.791C168.092 568.945 170.67 552.525 175.811 546.843C187.912 530.338 210.65 526.716 221.14 539.551ZM173.748 534.295C174.523 535.349 172.488 538.971 169.422 542.211C161.958 550.097 159.229 559.564 159.946 575.083C160.505 587.17 160.203 588.326 155.106 593.647V593.637C152.117 596.758 149.166 599.311 148.552 599.311C147.937 599.311 147.303 596.024 147.142 592.005C146.982 587.986 144.708 580.471 142.089 575.304C134.289 559.912 136.918 540.286 146.538 534.18C157.447 527.258 171.022 530.589 173.748 534.295ZM227.59 545.298C230.028 545.726 232.836 550.136 232.829 559.965C232.811 576.455 226.708 587.946 216.328 594.786C206.484 601.273 180.812 600.688 180.166 593.861C180.166 588.409 198.437 567.442 216.286 552.409C221.118 548.34 224.311 545.893 226.413 545.371C226.851 545.262 227.242 545.238 227.59 545.298ZM617.083 547.607C614.562 547.696 612.165 548.265 610.322 549.349C607.758 550.856 603.133 553.299 600.037 554.779C596.945 556.258 592.835 559.213 590.903 561.347C588.974 563.48 585.137 565.225 582.384 565.225C575.968 565.225 571.209 570.502 571.209 577.617C571.209 583.06 572.588 585.021 582.566 593.793C586.947 597.647 587.323 599.03 586.538 608.496C585.714 618.425 585.425 618.931 580.771 618.626C577.021 618.38 575.731 619.266 575.286 622.39C574.809 625.738 575.854 626.692 581.091 627.674C585.812 628.56 588.951 630.958 593.107 636.854C603.183 651.148 629.52 659.463 646.368 653.67C661.693 648.402 670.483 634.517 669.789 616.674C669.549 610.402 669.835 604.011 670.413 602.474C672.163 597.882 673.954 588.875 674.27 582.919C674.518 578.342 673.512 576.827 668.693 574.538C664.603 572.593 662.194 569.688 660.77 564.98C657.884 555.421 654.251 553.125 641.93 553.078C636.074 553.05 630.127 552.106 628.715 550.966C626.409 549.101 623.036 547.974 619.629 547.675C618.777 547.6 617.924 547.577 617.083 547.607ZM222.338 561.421C219.854 561.171 217.416 564.287 217.416 568.823C217.416 574.334 222.097 574.699 224.93 569.406C226.459 566.547 226.412 564.87 224.748 562.865C223.998 561.962 223.166 561.504 222.338 561.421ZM282.793 563.275C274.854 563.185 271.095 566.421 260.625 593.737C247.193 628.779 246.38 636.748 271.381 639.71C280.624 640.803 280.957 641.041 279.813 645.695C278.309 651.816 270.716 664.962 266.814 668.2C262.085 672.124 253.772 670.817 241.213 664.171L229.537 657.991L228.084 647.771C225.067 626.548 214.798 614.244 200.082 614.231C174.704 614.204 163.404 626.053 163.404 652.682C163.404 664.712 166.198 668.694 168.11 659.388C171.232 644.196 175.645 632.313 179.052 629.927C184.501 626.111 203.24 626.388 207.196 630.344C210.605 633.753 213.689 640.843 213.689 645.268C213.689 647.273 211.621 646.317 206.798 642.082C202.544 638.342 199.619 636.882 199.161 638.258C197.855 642.178 202.778 651.317 209.263 657.012C215.214 662.237 215.553 663.196 215.553 674.819C215.553 681.577 216.421 688.725 217.482 690.707C221.78 698.74 228.591 693.3 228.591 681.831C228.591 677.427 229.344 673.823 230.264 673.823C231.184 673.823 236.716 676.338 242.559 679.411C258.28 687.68 267.277 687.184 277.823 677.463C286.296 669.652 292.337 658.993 294.661 647.748C295.403 644.162 298.924 636.94 302.484 631.698C310.26 620.246 312.473 611.639 310.411 600.853C309.286 594.977 309.659 590.693 311.789 584.971C315.184 575.858 313.97 568.633 308.558 565.738C306.47 564.62 299.256 563.704 292.529 563.704C288.55 563.704 285.439 563.305 282.793 563.275ZM560.88 566.629C559.851 566.73 558.667 566.955 557.306 567.308C543.653 570.853 462.602 574.239 457.376 577.468C455.752 578.473 451.398 576.118 456.505 615.324C462.646 662.429 459.451 668.199 467.843 664.791C468.869 664.375 487.724 661.904 509.75 659.298C562.627 653.044 568.684 651.779 570.009 646.698C570.589 644.488 570.21 631.749 569.169 618.386C568.124 605.025 567.532 588.227 567.848 581.057C567.635 571.283 568.07 565.922 560.88 566.629ZM278.068 572.534L289.182 573.047C295.294 573.331 300.64 573.907 301.061 574.328C301.483 574.748 299.458 580.977 296.562 588.168C292.635 597.925 290.549 601.021 288.348 600.372C276.902 596.997 275.152 597.035 275.152 600.661C275.152 602.642 277.247 606.231 279.807 608.637C281.913 611.668 286.402 618.485 285.268 622C283.035 629.295 280.526 629.499 274.525 627.698C271.807 626.853 269.215 626.648 263.92 625.775C261.873 625.438 260.269 624.876 260.354 622.141C260.409 620.347 264.418 608.452 269.261 595.707L278.068 572.534ZM557.327 575.365C559.141 575.928 559.448 581.954 559.645 607.289C559.787 625.33 560.374 641.593 560.962 643.431C562.141 647.147 557.161 646.411 510.272 651.855C497.324 653.358 482.289 655.197 478.921 655.996C467.483 658.932 469.576 647.673 466.388 621.662C464.692 603.532 463.374 585.31 463.836 584.85C464.802 583.885 492.18 583.233 528.371 579.168C542.202 577.616 554.838 575.928 556.455 575.418C556.778 575.316 557.051 575.285 557.327 575.365ZM601.495 600.065C601.904 600.074 602.359 600.106 602.868 600.16C605.432 600.422 609.84 600.841 612.668 601.09C615.673 601.355 618.241 602.914 618.86 604.852C620.355 609.541 627.505 613.76 633.815 613.676C636.769 613.635 642.25 614.118 645.989 614.742C651.388 615.643 653.596 615.07 656.7 611.969C661.709 606.96 662.47 607.054 662.47 612.681C662.47 621.426 656.535 632.503 648.872 638.051C639.999 644.482 629.958 645.113 618.702 639.949C604.063 633.233 596.216 620.691 597.596 606.201C598.002 601.923 598.475 600.429 600.404 600.125C600.725 600.076 601.087 600.059 601.495 600.067V600.065ZM601.727 609.066C601.407 609.047 601.097 609.121 600.81 609.278C599.674 609.909 598.893 611.886 599.437 614.695C600.131 618.282 603.85 620.349 605.274 617.939C605.759 617.117 605.388 614.414 604.458 611.937C603.73 610.006 602.687 609.121 601.727 609.066ZM271.425 617.018C269.889 617.018 268.366 618.904 268.038 621.209C267.276 625.581 273.971 623.536 274.072 621.209C274.163 618.659 273.125 617.018 271.425 617.018ZM652.327 655.478C648.867 655.613 644.906 656.217 641.091 657.326C628.664 660.938 618.793 669.163 615.721 678.464C614.471 682.253 613.568 693.168 613.725 702.717C613.91 714.394 613.154 721.72 611.411 725.091C607.479 732.693 588.407 749.966 584.731 749.257C582.976 748.919 575.551 739.013 568.223 727.242C563.311 719.35 553.131 707.37 558.454 700.824C561.183 696.964 563.814 695.675 569.863 695.236C578.551 694.607 589.835 699.692 589.835 704.236C589.835 708.714 597.197 721.672 599.741 721.672C603.314 721.672 606.572 717.691 606.572 713.384C606.572 711.284 604.568 706.098 602.142 701.86C599.302 696.88 598.306 693.256 599.343 691.616C601.804 687.73 601.307 678.544 598.455 675.257C597.056 673.64 595.099 669.803 594.117 666.729C592.047 660.275 588.975 659.669 557.24 659.449C534.429 659.291 474.568 667.114 470.651 670.764C468.202 673.046 468.474 674.503 472.982 683.078C475.789 688.428 479.975 695.097 482.277 697.897C487.129 703.796 492.519 704.484 517.199 702.359C537.545 700.607 541.52 702.806 548.748 719.81C554.569 733.506 565.545 751.383 571.587 757.012C576.576 761.66 590.059 762.092 598.214 757.865C601.286 756.272 606.524 752.342 609.853 749.13C614.286 744.854 615.906 744.101 615.906 746.318C615.906 750.674 621.1 755.23 624.555 753.906C626.886 753.008 627.312 750.808 626.57 743.276C625.856 735.978 626.885 730.049 631.018 717.672C636.815 700.311 638.287 682.56 633.929 682.56C632.576 682.56 630.513 685.703 629.35 689.544L627.236 696.528L628.006 689.347C629.161 678.564 632.789 674.591 648.319 667.115C656.101 663.37 662.47 659.513 662.47 658.544C662.47 656.775 659.67 655.731 655.596 655.499C654.578 655.441 653.48 655.434 652.327 655.481V655.478ZM565.155 662.102C567.939 662.13 568.009 662.392 565.619 663.936C562.094 666.208 561.897 666.208 561.897 663.936C561.897 662.912 563.365 662.089 565.155 662.102ZM549.889 663.615C551.205 663.592 552.382 663.707 553.109 663.707C554.561 663.707 554.447 664.692 554.447 665.797C554.447 666.823 551.722 667.603 548.394 667.53C543.322 667.418 542.707 665.693 545.831 664.35C547.117 663.798 548.573 663.638 549.889 663.615ZM555.15 671.386C560.462 671.386 565.269 676.068 561.507 677.576C556.848 679.407 558.053 679.315 554.325 676.908C549.372 674.258 549.802 671.386 555.15 671.386ZM483.827 675.34C484.474 675.313 485.211 675.431 485.886 675.7C487.372 676.295 486.931 676.736 484.762 676.826C482.798 676.91 481.698 676.467 482.316 675.849C482.624 675.539 483.181 675.368 483.827 675.34ZM506.938 680.094C507.69 680.047 508.428 680.058 509.059 680.141C509.899 680.251 510.55 680.486 510.787 680.872C511.363 681.801 509.686 682.56 507.064 682.56C504.441 682.56 502.296 682.239 502.296 681.846C502.296 680.917 504.681 680.237 506.938 680.094ZM564.578 682.56C567.079 682.56 569.646 683.398 570.277 684.423C570.948 685.51 569.055 686.285 565.73 686.285C562.599 686.285 560.036 685.447 560.036 684.423C560.036 683.398 562.078 682.56 564.578 682.56ZM511.347 688.148C515.416 688.148 517.87 690.581 515.842 692.609C513.965 694.483 509.237 693.135 508.349 690.475C507.9 689.125 509.158 688.148 511.347 688.148ZM494.992 690.194C495.492 690.172 496.103 690.213 496.826 690.319C499.161 690.662 501.444 692.06 501.894 693.426C502.45 695.115 501.349 695.712 498.462 695.289C496.124 694.947 493.84 693.548 493.391 692.181C492.974 690.914 493.488 690.262 494.992 690.194Z" fill="black"/>
</g>
<defs>
<clipPath id="clip0_25_649">
<rect width="861" height="760.784" fill="white"/>
</clipPath>
</defs>
</svg>
